<?xml version="1.0" encoding="UTF-8" standalone="no"?>
<!-- Created with Inkscape (http://www.inkscape.org/) -->

<svg
   width="152mm"
   height="40mm"
   viewBox="0 0 152 40"
   version="1.1"
   id="svg2925"
   inkscape:version="1.2.1 (9c6d41e410, 2022-07-14)"
   sodipodi:docname="redlionfish_logo.svg"
   xmlns:inkscape="http://www.inkscape.org/namespaces/inkscape"
   xmlns:sodipodi="http://sodipodi.sourceforge.net/DTD/sodipodi-0.dtd"
   xmlns="http://www.w3.org/2000/svg"
   xmlns:svg="http://www.w3.org/2000/svg">
  <sodipodi:namedview
     id="namedview2927"
     pagecolor="#ffffff"
     bordercolor="#000000"
     borderopacity="0.25"
     inkscape:showpageshadow="2"
     inkscape:pageopacity="0.0"
     inkscape:pagecheckerboard="0"
     inkscape:deskcolor="#d1d1d1"
     inkscape:document-units="mm"
     showgrid="false"
     inkscape:zoom="1.6819304"
     inkscape:cx="298.76385"
     inkscape:cy="87.399573"
     inkscape:window-width="1269"
     inkscape:window-height="991"
     inkscape:window-x="874"
     inkscape:window-y="272"
     inkscape:window-maximized="0"
     inkscape:current-layer="layer1" />
  <defs
     id="defs2922" />
  <g
     inkscape:label="Layer 1"
     inkscape:groupmode="layer"
     id="layer1">
    <g
       id="g2920"
       transform="translate(-30.689938,-70.340405)">
      <path
         fill-rule="evenodd"
         fill="#29abe2"
         fill-opacity="1"
         d="m 38.535507,89.563569 c 0,-8.377093 6.792351,-15.169445 15.169444,-15.169445 8.378473,0 15.169445,6.792352 15.169445,15.169445 0,8.378472 -6.790972,15.169441 -15.169445,15.169441 -8.377093,0 -15.169444,-6.790969 -15.169444,-15.169441"
         id="path2148"
         style="stroke-width:0.352778" />
      <g
         fill="#d4135a"
         fill-opacity="1"
         id="g2172"
         transform="matrix(0.35277778,0,0,0.35277778,2.8388051,-13.865087)">
        <g
           id="use2150"
           transform="translate(199.8354,317.5863)">
          <path
             d="m 26.859375,0 h 10.5 l -12.25,-15.609375 c 5.921875,-1.15625 9.34375,-4.8125 9.34375,-12.34375 C 34.21875,-37.296875 28.015625,-41.0625 19.78125,-41.0625 H 3.59375 V 0 h 8.59375 v -15.015625 h 3.015625 z M 12.1875,-22.796875 v -9.6875 h 7.59375 c 3.59375,-0.109375 6.140625,1.109375 6.140625,4.59375 0,3.59375 -2.375,5.09375 -6.140625,5.09375 z m 0,0"
             id="path3258" />
        </g>
        <g
           id="use2152"
           transform="translate(236.49324,317.5863)">
          <path
             d="m 19.65625,-8.9375 c -0.921875,1.515625 -2.84375,2.265625 -4.6875,2.265625 -2.328125,0 -4.53125,-1.21875 -4.53125,-3.53125 v -1.34375 h 15.71875 v -8.8125 c 0,-7.25 -5.734375,-10.265625 -11.59375,-10.265625 -6.03125,0 -12.25,3.359375 -12.25,10.609375 v 9.921875 c 0,7.140625 6.09375,10.671875 12.125,10.671875 3.546875,0 8.1875,-1.390625 10.5,-5.6875 z m -1.09375,-8.578125 h -8.125 V -20.1875 c 0,-2.140625 2.09375,-3.1875 4.171875,-3.1875 2.03125,0 3.953125,1.046875 3.953125,3.140625 z m 0,0"
             id="path3262" />
        </g>
        <g
           id="use2154"
           transform="translate(264.56665,317.5863)">
          <path
             d="m 26.5,-41 h -8.109375 v 11.421875 C 16.875,-30.28125 15.140625,-30.625 13.453125,-30.625 7.890625,-30.5625 2.3125,-26.796875 2.3125,-20.421875 v 10.625 c 0.59375,7.765625 6.15625,10.375 12.484375,10.375 3.765625,0 8.0625,-0.875 11.703125,-2.265625 z M 18.390625,-6.03125 C 15.609375,-4.640625 10.5,-5.453125 10.375,-9.046875 v -11.78125 c 0.40625,-3.46875 5.40625,-4.046875 8.015625,-2.609375 z m 0,0"
             id="path3254" />
        </g>
        <g
           id="use2156"
           transform="translate(294.09012,317.5863)" />
        <g
           id="use2158"
           transform="translate(305.22665,317.5863)">
          <path
             d="M 3.59375,0 H 29.875 V -8.578125 H 12.125 V -41.0625 H 3.59375 Z m 0,0"
             id="path3248" />
        </g>
        <g
           id="use2160"
           transform="translate(335.9682,317.5863)">
          <path
             d="m 2.265625,-37.359375 c 0,2.734375 2.078125,4.875 4.75,4.875 2.90625,0 4.875,-2.140625 4.875,-4.875 0,-2.71875 -1.96875,-4.8125 -4.875,-4.8125 -2.671875,0 -4.75,2.09375 -4.75,4.8125 z m 0.859375,7.25 V 0 h 8.0625 v -30.109375 z m 0,0"
             id="path3240" />
        </g>
        <g
           id="use2162"
           transform="translate(350.29492,317.5863)">
          <path
             d="m 2.3125,-10.09375 c 0,7.25 6.046875,10.609375 12.078125,10.671875 5.96875,-0.0625 12,-3.421875 12,-10.671875 v -9.796875 c 0,-7.140625 -6.03125,-10.671875 -12,-10.734375 C 8.359375,-30.5625 2.3125,-27.03125 2.3125,-19.890625 Z M 14.390625,-23.375 c 1.84375,0 3.9375,1.046875 3.9375,2.953125 v 10.5 c 0,1.921875 -2.09375,3.25 -3.9375,3.25 -1.921875,0 -4.015625,-1.328125 -4.015625,-3.25 v -10.5 c 0,-1.90625 2.09375,-2.953125 4.015625,-2.953125 z m 0,0"
             id="path3244" />
        </g>
        <g
           id="use2164"
           transform="translate(378.94836,317.5863)">
          <path
             d="m 3.078125,0 h 8.0625 v -22.5625 c 0.921875,-0.515625 2.140625,-0.8125 3.296875,-0.8125 2.328125,0 4.59375,1.21875 4.59375,4 V 0 h 8 v -19.65625 c 0,-7.890625 -6.328125,-10.96875 -13.109375,-10.96875 -3.65625,0 -7.546875,0.984375 -10.84375,2.609375 z m 0,0"
             id="path3236" />
        </g>
        <g
           id="use2166"
           transform="translate(408.81985,317.5863)">
          <path
             d="m 20.46875,-37.40625 c 0,2.71875 2.09375,4.875 4.765625,4.875 2.890625,0 4.875,-2.15625 4.875,-4.875 0,-2.734375 -1.984375,-4.8125 -4.875,-4.8125 -2.671875,0 -4.765625,2.078125 -4.765625,4.8125 z M 21.34375,0 v -30.109375 h 8.0625 V 0 Z M 16.875,-41.1875 c -8.296875,-0.75 -13.75,3.421875 -13.75,10.625 V 0 h 8.0625 v -21.28125 h 5.34375 v -7.375 H 11.1875 v -1.453125 c 0,-2.375 2.09375,-4.234375 5.6875,-3.53125 z m 0,0"
             id="path3232" />
        </g>
        <g
           id="use2168"
           transform="translate(441.30148,317.5863)">
          <path
             d="m 1.453125,-4.53125 c 2.84375,3.78125 6.609375,5.109375 10.78125,5.109375 5.625,0 10.84375,-3.296875 10.84375,-9.859375 0,-5.6875 -4.8125,-7.828125 -8.640625,-8.8125 -1.265625,-0.234375 -4.171875,-1.515625 -4,-3.3125 0.171875,-1.734375 1.453125,-2.4375 2.734375,-2.4375 1.734375,0 3.875,0.875 4.859375,1.859375 l 4.015625,-5.5 c -3.078125,-2.5 -6.84375,-3.140625 -9.578125,-3.140625 -6.609375,0 -10.328125,4.578125 -10.265625,9.28125 0.0625,4.296875 3.140625,8.640625 9.859375,9.796875 2.734375,0.40625 3.65625,2.09375 2.90625,3.828125 -0.40625,0.875 -1.28125,1.34375 -2.4375,1.34375 -2.09375,0 -4.984375,-1.21875 -7.25,-3.375 z m 0,0"
             id="path3228" />
        </g>
        <g
           id="use2170"
           transform="translate(465.89471,317.5863)">
          <path
             d="M 11.1875,-41.0625 H 3.125 V 0 h 8.0625 v -22.5 c 2.5,-1.453125 7.953125,-1.15625 7.953125,2.609375 V 0 h 8 v -19.84375 c 0,-7.125 -5.390625,-10.78125 -11.078125,-10.78125 -1.625,0 -3.296875,0.296875 -4.875,0.921875 z m 0,0"
             id="path3224" />
        </g>
      </g>
      <path
         fill-rule="nonzero"
         fill="#d4135a"
         fill-opacity="1"
         d="m 52.176707,97.767032 c 0.06063,-0.110243 0.119888,-0.217731 0.170875,-0.311436 0.114378,0.02342 0.213597,0.04685 0.220486,0.05512 0.02205,0.02067 -0.107484,0.106108 -0.391361,0.256314 M 33.708239,90.25948 c 0.01516,0.0689 0.09371,0.259069 0.172255,0.421678 0.100597,0.206707 0.151584,0.336244 0.166742,0.424438 0.01378,0.07992 0.02205,0.474045 0.0248,1.072113 0.0041,1.094161 0.0069,1.114834 0.19706,1.765268 l 0.108865,0.376202 0.01378,0.598068 c 0.0096,0.440972 0.02205,0.622875 0.04272,0.694531 0.01516,0.05375 0.05099,0.170879 0.07855,0.260453 0.0813,0.268714 0.106109,0.46302 0.118511,0.945331 0.0055,0.268718 0.02205,0.508498 0.03858,0.589802 0.08268,0.416169 0.303169,0.841982 0.679373,1.310513 0.256315,0.319705 0.486447,0.507118 0.748275,0.607716 0.30868,0.118513 0.905371,0 0.967382,-0.192927 0.02067,-0.06339 0.03583,-0.07304 0.241157,-0.157095 0.304547,-0.122647 0.595313,-0.25907 1.346345,-0.63252 0.676617,-0.33624 1.134127,-0.602202 1.535133,-0.894345 0.126781,-0.09233 0.348647,-0.252183 0.491963,-0.354157 0.341753,-0.24529 0.548456,-0.413413 0.881944,-0.713825 0.286632,-0.259069 0.391361,-0.337618 0.391361,-0.292142 0,0.01379 -0.03168,0.111619 -0.0689,0.217727 -0.115757,0.322464 -0.259073,0.836472 -0.300411,1.080382 -0.05512,0.322464 -0.06891,0.803399 -0.02893,0.992188 0.06202,0.289391 0.338998,0.665593 0.6339,0.861275 0.07717,0.04961 0.186033,0.122647 0.242534,0.159854 0.05788,0.0372 0.191548,0.158472 0.300412,0.268715 0.107488,0.110243 0.261828,0.248048 0.343133,0.304549 0.01655,0.01238 0.03168,0.02343 0.04547,0.03306 0.0014,0.14469 0.06339,0.29903 0.181902,0.40514 0.04272,0.0386 0.07855,0.0758 0.07855,0.0827 0,0.006 -0.05512,0.0648 -0.121267,0.12954 -0.133671,0.12953 -0.168124,0.20808 -0.168124,0.37345 0,0.0758 0.01242,0.11575 0.06064,0.18879 0.137802,0.20533 0.491959,0.42581 0.836468,0.51952 0.09508,0.0248 0.250803,0.0689 0.344508,0.0965 0.275608,0.0813 0.580157,0.11162 1.102431,0.11162 0.293525,0 0.511252,-0.007 0.757922,-0.033 0.119891,0.0606 0.271473,0.14055 0.39963,0.20946 -0.323836,0.18052 -0.396875,0.27423 -0.410655,0.44235 -0.01517,0.17363 0.07993,0.30592 0.297657,0.41617 0.190168,0.0965 0.760677,0.14193 1.27055,0.10059 0.396875,-0.0303 0.70418,-0.0799 1.291223,-0.20395 0.275608,-0.0579 0.63941,-0.13504 0.806154,-0.1695 0.16812,-0.0358 0.310056,-0.0579 0.31557,-0.0482 0.01517,0.0248 -0.0303,0.0799 -0.31557,0.37896 -0.338999,0.35829 -0.968763,0.9288 -1.022505,0.9288 -0.01101,0 -0.0303,0.0124 -0.04272,0.0276 -0.0193,0.0234 -0.0069,0.0331 0.07993,0.0579 0.214972,0.0606 0.359668,0.0744 0.760677,0.0717 0.635275,-0.003 0.992188,-0.073 1.430401,-0.2825 0.514011,-0.24667 0.843361,-0.53055 1.109324,-0.95911 0.09922,-0.15986 0.139181,-0.17088 0.124022,-0.0372 -0.0193,0.15847 -0.111622,0.40652 -0.264583,0.70693 -0.279742,0.54984 -0.621496,1.06798 -1.256771,1.91134 -0.199817,0.26596 -0.363802,0.49334 -0.363802,0.50574 0,0.0276 -0.0041,0.0276 0.223242,0.003 0.334863,-0.0372 0.961869,-0.21221 1.358744,-0.38034 0.398255,-0.16812 0.920532,-0.5016 1.251261,-0.80064 0.06201,-0.0579 0.110243,-0.0868 0.121267,-0.0758 0.01792,0.0179 -0.05926,0.27423 -0.14883,0.48783 -0.0689,0.16674 -0.15434,0.30592 -0.377581,0.61736 -0.248045,0.34727 -0.32935,0.4768 -0.307302,0.4892 0.02893,0.0179 0.417545,-0.0648 0.63252,-0.13504 0.373447,-0.12265 0.825444,-0.37483 1.192001,-0.66422 0.16261,-0.12953 0.880569,-0.83647 0.997702,-0.98392 0.03858,-0.0469 0.07579,-0.0799 0.08406,-0.0717 0.03996,0.04 -0.197062,0.60358 -0.392741,0.93156 -0.07441,0.12678 -0.201196,0.33348 -0.282497,0.46026 -0.166744,0.26183 -0.186038,0.34038 -0.09922,0.42719 0.06615,0.0648 0.148826,0.0593 0.300411,-0.022 h -0.0014 c 0.221866,-0.11852 0.465776,-0.31695 0.811664,-0.66284 0.220487,-0.22187 0.417548,-0.44097 0.566375,-0.63252 0.124022,-0.16261 0.234265,-0.29903 0.243914,-0.30593 0.03447,-0.0207 0.01655,0.0413 -0.07028,0.25219 -0.186034,0.44786 -0.198437,0.51676 -0.106108,0.60909 0.04272,0.0427 0.07441,0.0565 0.133667,0.0565 0.06753,0 0.09646,-0.0193 0.294901,-0.18879 0.457511,-0.3955 0.719335,-0.77171 1.231967,-1.77216 0.132292,-0.25907 0.249425,-0.46853 0.260449,-0.46578 0.02067,0.006 0.02205,0.16399 0.0041,0.43959 -0.0069,0.1006 -0.0028,0.17364 0.0096,0.1888 0.114378,0.13918 0.527791,-0.35003 0.78135,-0.92742 0.04685,-0.10887 0.150206,-0.31419 0.228752,-0.45889 0.241159,-0.43959 0.409279,-0.8599 0.529167,-1.32016 0.246669,-0.95222 0.08957,-2.025423 -0.380337,-2.606956 -0.106109,-0.132292 -0.40652,-0.409279 -0.647679,-0.599447 -0.110243,-0.08682 -0.124022,-0.114378 -0.07028,-0.140561 0.01517,-0.0069 0.183278,-0.03168 0.374826,-0.05512 0.190172,-0.02205 0.494718,-0.07028 0.675241,-0.106109 0.18052,-0.03721 0.496094,-0.09784 0.702797,-0.136426 0.467156,-0.08682 0.978408,-0.201193 1.339455,-0.300412 0.151585,-0.04134 0.467156,-0.114377 0.701421,-0.162609 0.840603,-0.172254 1.172711,-0.30868 1.677074,-0.686262 0.33624,-0.25218 0.642165,-0.569129 0.822688,-0.851627 0.09646,-0.150206 0.270094,-0.545705 0.332105,-0.757922 0.04686,-0.16123 0.04961,-0.191547 0.03996,-0.424434 -0.01655,-0.354157 -0.0441,-0.434082 -0.259069,-0.731738 -0.248049,-0.344509 -0.611851,-0.735874 -1.141018,-1.227833 l -0.316946,-0.294901 -0.0014,-0.261828 c -0.0041,-0.307301 -0.03168,-0.402386 -0.230131,-0.771702 -0.09922,-0.187413 -0.146075,-0.249424 -0.292146,-0.395495 -0.300411,-0.300412 -0.496094,-0.38723 -0.868165,-0.384471 -0.205327,0.0028 -0.25218,0.0096 -0.424434,0.06477 -0.297656,0.09784 -0.256314,0.108864 -0.519522,-0.135047 -0.325215,-0.30317 -0.592553,-0.516766 -0.916393,-0.737253 -0.15434,-0.103349 -0.282497,-0.197058 -0.286632,-0.205327 -0.0028,-0.0096 0.07993,-0.08682 0.184655,-0.170875 0.21222,-0.172254 1.336699,-1.153417 1.752864,-1.532378 0.520901,-0.47129 0.892969,-0.883324 1.770782,-1.963706 0.892969,-1.098296 1.183732,-1.547537 1.099672,-1.699119 -0.01379,-0.0248 -0.0441,-0.09095 -0.06752,-0.146075 -0.09371,-0.227375 -0.338999,-0.376202 -0.62701,-0.380336 -0.141937,-0.0014 -0.16674,0.0041 -0.297656,0.07028 -0.241156,0.118509 -0.4079,0.282497 -0.986674,0.959115 -0.742763,0.87092 -1.164442,1.402842 -1.922364,2.430857 -0.822688,1.113455 -1.542023,2.025717 -1.597144,2.025717 -0.01517,0 -0.07993,-0.02618 -0.144696,-0.05926 -0.08819,-0.0441 -0.115757,-0.06752 -0.108864,-0.09233 0.0055,-0.01792 0.184655,-0.279742 0.401007,-0.582909 0.465779,-0.653189 1.282954,-1.874132 1.773537,-2.649968 0.192923,-0.305925 0.487825,-0.762056 0.654568,-1.012856 0.366558,-0.54846 0.479556,-0.727604 0.859896,-1.368394 0.16123,-0.271473 0.479556,-0.802019 0.706932,-1.178221 0.227376,-0.377585 0.486449,-0.811667 0.574643,-0.964628 0.08819,-0.154341 0.184658,-0.305926 0.213596,-0.337619 0.06477,-0.07028 0.08268,-0.104733 0.143316,-0.272853 l 0.04823,-0.132291 -0.03583,-0.108864 c -0.04823,-0.146071 -0.08268,-0.208086 -0.158471,-0.285256 -0.09646,-0.09784 -0.184658,-0.150206 -0.343133,-0.203948 -0.338998,-0.115757 -0.538811,-0.03583 -0.956359,0.384471 -0.128157,0.128157 -0.312815,0.341754 -0.412034,0.474045 -0.243911,0.327974 -0.695907,1.010102 -0.894345,1.35048 -0.275607,0.472665 -0.792374,1.435914 -1.220942,2.275141 -0.662838,1.299489 -0.859896,1.666046 -1.460723,2.718869 -0.190168,0.334864 -0.449237,0.813043 -0.574639,1.065223 -0.125402,0.250804 -0.237025,0.463021 -0.248049,0.468531 -0.0248,0.01517 -0.197058,-0.02618 -0.228752,-0.05512 -0.01792,-0.01792 0.0083,-0.190169 0.132292,-0.841978 0.288008,-1.51033 0.314191,-1.682588 0.527787,-3.367928 0.434083,-3.427179 0.541571,-4.871363 0.465776,-6.256291 -0.0441,-0.822692 -0.100594,-1.288468 -0.183278,-1.528248 -0.141937,-0.413409 -0.580154,-0.702797 -0.959115,-0.633896 -0.22462,0.04272 -0.450617,0.195683 -0.537436,0.367937 -0.100594,0.199813 -0.133667,0.4203 -0.17363,1.176846 -0.01517,0.303166 -0.04134,0.784101 -0.0565,1.070733 -0.06477,1.160307 -0.07441,1.863108 -0.06063,4.234713 0.0069,1.27744 0.02067,2.645833 0.0303,3.037194 0.01101,0.446486 0.0096,0.946715 -0.0014,1.331186 -0.01792,0.578778 -0.0565,1.214053 -0.07717,1.231967 -0.0193,0.01792 -0.578778,-0.01379 -0.603581,-0.03447 C 56.547693,87.90652 56.086054,86.658 55.828361,85.890433 55.707093,85.53062 55.499011,84.887076 55.36534,84.462642 54.940906,83.109407 54.302872,81.346894 53.940449,80.52834 53.688266,79.957832 53.011652,78.574283 52.791166,78.180163 52.369484,77.425 51.721809,76.726334 51.340089,76.611957 c -0.05236,-0.01517 -0.158471,-0.02893 -0.234266,-0.02893 -0.252179,0 -0.405144,0.117133 -0.482314,0.366557 -0.04272,0.144695 -0.06063,0.607716 -0.03168,0.861275 0.0441,0.367937 0.261828,1.109321 0.467155,1.581986 0.143316,0.33073 0.407899,0.847496 0.655944,1.280199 0.23978,0.417544 0.850251,1.496551 1.18787,2.097373 0.560864,1.000457 2.071194,4.011468 2.345422,4.675685 0.152961,0.370692 0.220486,0.56913 0.203948,0.585664 -0.01655,0.01655 -0.407899,0.107488 -0.435458,0.101978 -0.02342,-0.0055 -0.107488,-0.173676 -0.525032,-1.057 C 53.810926,85.6394 51.821041,81.678919 51.384199,80.894814 51.260177,80.671569 51.04796,80.276073 50.911534,80.017 50.644195,79.505748 50.631791,79.482323 50.190819,78.734046 49.833907,78.130468 49.54314,77.685361 49.373645,77.4883 c -0.212221,-0.248045 -0.440973,-0.396875 -0.680752,-0.439593 -0.253559,-0.04823 -0.398254,-0.01655 -0.531922,0.112998 -0.133671,0.129537 -0.180523,0.293522 -0.177768,0.62701 0.0028,0.4768 0.107488,0.774456 0.527787,1.506195 0.217731,0.377582 0.362426,0.613227 0.694531,1.127234 0.119892,0.186034 0.303171,0.476801 0.405144,0.6463 0.101974,0.169499 0.264584,0.429948 0.359668,0.578778 0.246669,0.383092 0.497473,0.81304 0.990812,1.697743 0.4768,0.854382 0.810284,1.442804 1.05144,1.850704 0.08682,0.14883 0.248048,0.431327 0.356912,0.627006 0.108867,0.197061 0.31695,0.556729 0.461645,0.800643 0.237021,0.398251 0.493335,0.847492 0.835089,1.462098 0.07442,0.133668 0.110243,0.214972 0.09784,0.227376 -0.02067,0.02067 -0.443728,0.107488 -0.456132,0.0937 -0.0028,-0.0041 -0.07992,-0.139182 -0.169499,-0.297656 -0.187413,-0.32935 -0.414789,-0.695908 -0.775836,-1.252637 C 51.877535,86.107926 51.55783,85.588404 51.119613,84.838751 50.853654,84.384 50.405792,83.65364 49.923478,82.891584 49.187604,81.725763 47.832994,79.886083 47.236302,79.241159 47.01444,79.001383 46.71127,78.772628 46.437042,78.638957 c -0.265963,-0.130912 -0.398255,-0.163985 -0.713825,-0.177765 -0.407899,-0.0193 -0.595312,0.04961 -0.694531,0.254935 -0.0441,0.08819 -0.05374,0.135051 -0.05374,0.246669 0,0.16812 0.03583,0.285257 0.172254,0.552595 0.221862,0.438217 0.505739,0.822688 1.502061,2.033983 0.423058,0.515387 1.524109,1.923743 2.005044,2.565908 0.221866,0.297656 0.504363,0.666972 0.62701,0.819933 0.117132,0.146071 0.253559,0.319705 0.39274,0.497473 -0.08544,-0.07442 -0.166744,-0.143316 -0.24529,-0.205331 -0.442351,-0.352778 -0.78686,-0.581529 -1.124479,-0.727604 -0.566374,-0.64492 -0.972898,-1.073489 -1.595769,-1.701874 -0.657324,-0.662838 -1.411111,-1.371148 -1.861728,-1.748734 -0.537436,-0.449237 -1.036285,-0.706931 -1.431784,-0.737249 -0.356913,-0.02755 -0.527788,0.108864 -0.525032,0.418924 0.0014,0.186034 0.07166,0.367937 0.242534,0.629765 0.378961,0.576019 0.943956,1.157552 2.648589,2.717489 0.194303,0.177769 0.442351,0.409279 0.62563,0.581533 -0.04548,0.04823 -0.08268,0.0937 -0.104729,0.130913 -0.02342,0.03996 -0.07304,0.152964 -0.115757,0.265962 -0.290767,-0.239779 -0.62563,-0.507118 -1.041795,-0.829578 -0.614606,-0.47818 -0.875055,-0.666972 -1.289844,-0.931555 -0.664217,-0.423059 -1.204408,-0.654569 -1.529623,-0.654569 -0.09922,0 -0.128157,0.0083 -0.176389,0.04823 -0.126781,0.106108 -0.125402,0.267338 0.0041,0.516766 0.203948,0.394117 0.582909,0.840603 1.112076,1.309134 0.333484,0.294901 1.145148,0.923286 1.773534,1.380797 -0.369313,0.02342 -0.672483,0.06339 -0.804775,0.104729 -0.270093,0.08268 -0.545701,0.250804 -0.740004,0.451997 -0.224621,0.232889 -0.282497,0.395495 -0.30868,0.865409 -0.01242,0.228752 -0.01101,0.417545 0.0041,0.620117 0.01242,0.15985 0.01655,0.32246 0.0096,0.359667 -0.0069,0.03721 -0.08268,0.17501 -0.16812,0.305926 -0.191548,0.293521 -0.221865,0.352777 -0.340377,0.664213 -0.157096,0.410655 -0.220487,0.730359 -0.223242,1.127234 -0.0014,0.296281 0.03168,0.502984 0.125402,0.766191 0.139182,0.398251 0.272853,0.564995 0.705556,0.888835 0.09371,0.0689 0.163985,0.124022 0.214975,0.169499 -0.241158,0.0248 -0.728983,0.06063 -1.055578,0.07579 -0.114377,0.0055 -0.183278,0.0096 -0.227376,0.01655 -0.169499,-0.09646 -0.551215,-0.264584 -1.000456,-0.436841 -0.180524,-0.0689 -0.509873,-0.206703 -0.733118,-0.303167 -0.223242,-0.09784 -0.478176,-0.208082 -0.56775,-0.24529 -0.08957,-0.03721 -0.283877,-0.124026 -0.434083,-0.192927 -0.148826,-0.0689 -0.383095,-0.172254 -0.519521,-0.230131 -0.136423,-0.05926 -0.362423,-0.158475 -0.501605,-0.223241 -1.488283,-0.683507 -2.11529,-0.928801 -2.856674,-1.123104 -0.191548,-0.04961 -0.416168,-0.117133 -0.500228,-0.148826 -0.286632,-0.110243 -0.424436,-0.137806 -0.69591,-0.140561 -0.297656,-0.0014 -0.42168,0.02893 -0.547081,0.135047 -0.09784,0.08406 -0.137804,0.157095 -0.141938,0.253559 -0.0014,0.03996 -0.01378,0.106108 -0.02894,0.147451 -0.03307,0.09922 -0.03169,0.300411 0.0055,0.456131"
         id="path2302"
         style="stroke-width:0.352778" />
      <path
         fill-rule="nonzero"
         fill="#d4135a"
         fill-opacity="1"
         d="m 33.704105,89.803349 c 0.01378,-0.04134 0.02618,-0.107488 0.02756,-0.147451 0.0028,-0.09646 0.0441,-0.169499 0.141938,-0.253559 0.124024,-0.106109 0.249425,-0.136426 0.547082,-0.135047 0.271473,0.0028 0.409277,0.0303 0.695909,0.140561 0.08406,0.03168 0.30868,0.09922 0.500228,0.148826 0.741384,0.194303 1.368392,0.439597 2.856675,1.123104 0.140557,0.06477 0.365181,0.163985 0.501601,0.223241 0.136426,0.05788 0.370698,0.16123 0.519525,0.230131 0.150206,0.0689 0.344508,0.15572 0.434082,0.192927 0.08957,0.03721 0.344509,0.146071 0.567747,0.24529 0.223245,0.09784 0.552598,0.234266 0.733121,0.303167 0.509874,0.195682 0.934308,0.38585 1.056951,0.472669 l 0.05375,0.03858 -0.03859,0.04134 c -0.02205,0.02343 -0.03996,0.0565 -0.03996,0.07442 0,0.01655 -0.03583,0.133668 -0.07855,0.25907 -0.06063,0.173633 -0.07993,0.257693 -0.07993,0.352777 -0.0014,0.152965 0.06201,0.516767 0.150206,0.8723 0.03583,0.144695 0.09233,0.389985 0.124026,0.544325 0.04272,0.203948 0.08406,0.337619 0.151582,0.494715 0.05237,0.117133 0.103353,0.223241 0.114377,0.234265 0.01654,0.01655 0.05788,0.0083 0.152965,-0.02893 0.187413,-0.07166 0.341753,-0.115754 0.680748,-0.192924 0.421682,-0.09784 0.596692,-0.117133 0.919152,-0.103353 0.490583,0.02205 1.044554,0.133671 1.744595,0.350022 0.507118,0.157096 0.569133,0.179144 0.94258,0.32935 0.538812,0.216352 1.158928,0.427193 1.620573,0.54846 0.249425,0.06615 0.653189,0.17501 0.898479,0.241156 0.245294,0.06753 0.558105,0.14056 0.694531,0.162609 0.505743,0.07993 0.910883,0.136426 1.11759,0.15572 0.458886,0.04272 1.03215,0.139181 1.10381,0.184654 0.05926,0.03859 0.0565,0.118512 -0.0069,0.245294 -0.01101,0.0193 -0.02893,0.05374 -0.05099,0.09646 -0.05375,-0.02618 -0.113002,-0.03996 -0.173634,-0.04134 -0.02205,-0.0028 -0.0441,-0.0055 -0.06615,-0.0055 -0.08682,0 -0.217731,0.03996 -0.274232,0.112998 -0.0041,0.0055 -0.0096,0.0097 -0.01379,0.01517 -0.05374,0.02755 -0.106109,0.05788 -0.157096,0.09095 -0.0083,0.0055 -0.01517,0.01242 -0.02342,0.01792 -0.139182,0.03306 -0.228752,0.146071 -0.260449,0.275608 -0.0083,0.0041 -0.01517,0.0069 -0.02205,0.01101 -0.08406,0.04823 -0.137802,0.110243 -0.16674,0.179144 -0.205331,0.136426 -0.356912,0.296277 -0.625627,0.336239 -0.267342,0.03996 -0.544325,0.03583 -0.813043,0.01517 -0.274232,-0.02205 -0.396875,0.202572 -0.370692,0.416168 -0.276987,0.114378 -0.544325,0.249425 -0.857141,0.201193 -0.310056,-0.04685 -0.592557,-0.172255 -0.908127,-0.202572 -0.498849,-0.04685 -0.494715,0.731738 0,0.778591 0.344512,0.03305 0.655948,0.201196 1.00597,0.213596 0.42719,0.01517 0.760677,-0.177765 1.149283,-0.311436 0.159851,-0.05374 0.241156,-0.175009 0.261828,-0.305925 0.248046,0.0041 0.494715,-0.01238 0.740005,-0.05374 0.372071,-0.06339 0.559484,-0.271473 0.855761,-0.446486 -0.104729,0.186037 -0.199813,0.365181 -0.300411,0.569133 -0.16123,0.08406 -0.326595,0.15985 -0.496094,0.224617 -0.06201,0.02067 -0.124023,0.04272 -0.186038,0.06753 -0.453372,0.177768 -0.278366,0.901234 0.197062,0.752404 -0.279742,0.58154 -0.520897,0.96739 -0.913641,1.48415 -0.352778,0.46578 -0.604961,0.70418 -0.905369,0.8599 -0.158475,0.0827 -0.361047,0.15158 -0.522277,0.17915 -0.157096,0.0248 -0.552591,0.0207 -0.706932,-0.008 -0.325218,-0.062 -0.61185,-0.18466 -1.1796,-0.50712 -0.159855,-0.0909 -0.427193,-0.23289 -0.595313,-0.31557 -0.362426,-0.17777 -0.538815,-0.226 -0.919152,-0.2508 -0.340377,-0.0207 -0.432703,-0.04 -0.636654,-0.13091 -0.491959,-0.21911 -0.848872,-0.56776 -1.262282,-1.24162 -0.0096,-0.0152 -0.0193,-0.0303 -0.02755,-0.0427 0.111622,0.0717 0.22462,0.10611 0.384471,0.0827 0.110243,-0.0165 0.186037,-0.0675 0.23151,-0.13505 0.385851,-0.051 0.771702,-0.1006 1.154797,-0.168125 0.675238,0.252185 1.412491,0.190165 2.108398,0.02618 0.487828,-0.117133 0.279742,-0.866785 -0.206703,-0.751032 -0.286632,0.06753 -0.618741,0.129537 -0.94258,0.130916 -0.05099,-0.132292 -0.163985,-0.241159 -0.340374,-0.256314 -0.197062,-0.01655 -0.372072,0.0041 -0.545705,0.06339 -0.03583,-0.0028 -0.07304,-0.0014 -0.112998,0.0069 -0.560861,0.107488 -1.127235,0.166744 -1.69223,0.249428 -0.237024,0.03443 -0.340377,0.337619 -0.250803,0.541567 -0.08131,-0.05788 -0.235645,-0.195683 -0.343133,-0.305926 -0.107488,-0.111618 -0.242535,-0.23151 -0.299032,-0.268714 -0.0565,-0.03721 -0.166744,-0.110243 -0.243914,-0.159854 -0.294902,-0.195682 -0.571885,-0.570509 -0.6339,-0.861275 -0.03996,-0.188789 -0.02618,-0.668348 0.02893,-0.992188 0.04271,-0.24529 0.184654,-0.757918 0.299032,-1.080382 0.03859,-0.106108 0.07028,-0.203948 0.07028,-0.217727 0,-0.04548 -0.104729,0.03306 -0.391361,0.292142 -0.332112,0.301791 -0.540191,0.468535 -0.881944,0.713825 -0.143316,0.101974 -0.365185,0.261828 -0.491966,0.355533 -0.401003,0.290766 -0.858513,0.558105 -1.535134,0.892969 -0.751029,0.37345 -1.041795,0.509873 -1.346341,0.633899 -0.205328,0.08268 -0.220486,0.09233 -0.241157,0.155716 -0.06201,0.191548 -0.658702,0.311439 -0.966005,0.192927 -0.263205,-0.100598 -0.493337,-0.288011 -0.749652,-0.607716 -0.376205,-0.469911 -0.596691,-0.895724 -0.680751,-1.310513 -0.01516,-0.08131 -0.03169,-0.321084 -0.03721,-0.589802 -0.0124,-0.482311 -0.03721,-0.676617 -0.118512,-0.945332 -0.02756,-0.09095 -0.06201,-0.208086 -0.07855,-0.260452 -0.02067,-0.07166 -0.03307,-0.253559 -0.04272,-0.694531 l -0.01378,-0.598068 -0.108865,-0.376202 c -0.190169,-0.650434 -0.192925,-0.671107 -0.197059,-1.765268 -0.0014,-0.596692 -0.01102,-0.990809 -0.0248,-1.072113 -0.01516,-0.08819 -0.06615,-0.219111 -0.166743,-0.424438 -0.07855,-0.163985 -0.157096,-0.352778 -0.172255,-0.421679 -0.03721,-0.155719 -0.03859,-0.356912 -0.0041,-0.456131"
         id="path2304"
         style="stroke-width:0.352778" />
      <path
         fill-rule="nonzero"
         fill="#d4135a"
         fill-opacity="1"
         d="m 52.445425,88.762929 c -0.0303,-0.02755 -0.04961,-0.0248 -0.205327,0.0303 -0.09371,0.03306 -0.334864,0.117133 -0.53606,0.186034 -0.749653,0.256317 -1.418001,0.526411 -2.093239,0.846116 -0.217731,0.101974 -0.56086,0.264583 -0.762056,0.359668 -0.373447,0.177768 -0.773077,0.38723 -1.649511,0.87092 -0.469911,0.259073 -0.687638,0.367936 -1.926495,0.967383 -0.618741,0.299036 -0.71658,0.338999 -1.015616,0.416169 -0.363802,0.09508 -0.54708,0.06339 -0.636654,-0.107488 -0.02618,-0.04961 -0.124023,-0.135047 -0.32246,-0.282497 -0.432703,-0.32246 -0.566374,-0.490584 -0.706935,-0.888835 -0.09233,-0.263207 -0.125399,-0.47129 -0.124023,-0.766191 0.0028,-0.396875 0.06615,-0.716579 0.223242,-1.127234 0.118512,-0.312815 0.148829,-0.370692 0.340377,-0.664214 0.08544,-0.130915 0.16123,-0.268717 0.16812,-0.305925 0.0069,-0.03721 0.0028,-0.198437 -0.0096,-0.359667 -0.01517,-0.203952 -0.01655,-0.391365 -0.0041,-0.620117 0.02618,-0.468534 0.08406,-0.63252 0.30868,-0.86403 0.194303,-0.202572 0.469911,-0.370692 0.740005,-0.454755 0.15434,-0.04685 0.538815,-0.09233 0.988056,-0.114374 0.299032,-0.01517 0.337619,-0.02067 0.436838,-0.06753 0.242534,-0.117132 0.345888,-0.261828 0.511252,-0.7152 0.04547,-0.125402 0.104729,-0.265963 0.130913,-0.31006 0.07579,-0.130912 0.316949,-0.343133 0.478179,-0.421679 0.206707,-0.100598 0.332105,-0.119891 0.618737,-0.09233 0.727604,0.0689 1.211298,0.294901 2.031231,0.949466 0.515384,0.412034 1.196136,1.067982 1.927874,1.858977 0.377582,0.409275 0.994943,1.222318 1.1107,1.466233 0.08406,0.175009 0.07028,0.294897 -0.02205,0.210837"
         id="path2306"
         style="stroke-width:0.352778" />
      <path
         fill-rule="nonzero"
         fill="#ffffff"
         fill-opacity="1"
         d="m 46.639751,90.143723 c 0,0.02067 -0.0083,0.03859 -0.0193,0.03859 -0.01101,0 -0.181903,-0.126781 -0.381716,-0.281121 -0.835092,-0.650434 -1.901695,-1.276061 -2.645834,-1.551668 -0.07992,-0.0303 -0.140561,-0.06201 -0.135047,-0.07028 0.02205,-0.03859 0.263204,-0.01101 0.443728,0.05099 0.472666,0.16123 1.379414,0.662838 1.940278,1.073492 0.420299,0.305926 0.797884,0.657324 0.797884,0.740005 m 1.350476,0.08544 c 0,0.01654 -0.0041,0.0303 -0.0083,0.0303 -0.0041,0 -0.09922,-0.133672 -0.210838,-0.296277 -0.512632,-0.748277 -1.124479,-1.42627 -1.82039,-2.013317 -0.54846,-0.464397 -1.237477,-0.934308 -1.693608,-1.157552 -0.176389,-0.08544 -0.212217,-0.126778 -0.122647,-0.136423 0.203952,-0.02342 1.193384,0.604957 1.887915,1.20027 0.593933,0.509873 1.04455,0.979784 1.435915,1.49655 0.270094,0.358288 0.531922,0.789616 0.531922,0.876431 m -2.681661,0.658703 c 0,0.0441 -0.0303,0.03306 -0.237025,-0.08957 -0.316946,-0.188789 -1.154793,-0.598068 -1.493791,-0.731739 -0.172255,-0.0689 -0.312816,-0.129533 -0.312816,-0.137802 0,-0.02067 0.198438,0.0303 0.418924,0.106109 0.39274,0.135047 1.098296,0.453376 1.325672,0.599447 0.157099,0.09922 0.299036,0.220486 0.299036,0.253559 m -2.931086,1.857594 c -0.0303,0.0565 -0.122647,0.05237 -0.367937,-0.01655 -0.507118,-0.143316 -1.955437,-0.69591 -3.00826,-1.147907 -0.2384,-0.103353 -0.711066,-0.304546 -1.051442,-0.447862 C 37.561196,90.96915 37.089907,90.75004 36.676496,90.540578 35.980587,90.1878 35.604382,90.01968 35.182702,89.87223 c -0.30868,-0.107484 -0.676616,-0.194303 -0.844737,-0.198438 -0.216352,-0.0055 -0.122646,-0.07028 0.101975,-0.07028 0.325217,0 0.953602,0.175013 1.551671,0.434082 0.165365,0.07028 0.5333,0.248049 0.819932,0.3955 0.286632,0.146071 0.672483,0.330729 0.858518,0.410654 0.669726,0.285253 1.963704,0.822688 2.218643,0.920528 0.55397,0.21222 1.535133,0.570509 1.98713,0.726228 0.259073,0.08957 0.48369,0.173634 0.498849,0.188789 0.0193,0.0193 0.02067,0.03447 0.0028,0.06615 m -4.099666,-0.08544 c 0.80753,0.172255 1.445564,0.290767 2.392275,0.445107 0.232889,0.0372 0.638033,0.111619 0.898482,0.163985 0.260449,0.05237 0.491959,0.09508 0.514008,0.09508 0.02205,0 0.04961,0.01242 0.06201,0.02755 0.01792,0.02205 0.01517,0.03168 -0.01242,0.04823 -0.07993,0.04548 -0.345889,0.02067 -1.105186,-0.104729 -1.393197,-0.231511 -1.725302,-0.296277 -2.816709,-0.551216 -0.926043,-0.217731 -1.067981,-0.254938 -1.685342,-0.445106 -0.712446,-0.219107 -1.532379,-0.405145 -1.985753,-0.451997 -0.07028,-0.0069 -0.128158,-0.02205 -0.128158,-0.03305 0,-0.03168 0.403766,-0.0014 0.713824,0.05374 m 0.08682,2.652727 c -0.143316,0.06752 -0.19706,0.07441 -0.106109,0.01238 0.166742,-0.112998 0.573264,-0.253559 0.949468,-0.32935 0.366558,-0.07304 0.731738,-0.107488 1.277441,-0.119891 0.647678,-0.01379 3.859885,0.02618 4.099665,0.05099 0.321081,0.03306 0.347264,0.03443 0.347264,0.0193 0,-0.0069 -0.07579,-0.02893 -0.169499,-0.04685 -0.09233,-0.01792 -0.359668,-0.07579 -0.592554,-0.128157 -0.23289,-0.05237 -0.832337,-0.1695 -1.331186,-0.260449 -0.498849,-0.09095 -1.163066,-0.220486 -1.475878,-0.288011 -0.711069,-0.154341 -1.493795,-0.303167 -1.823146,-0.348644 -0.352778,-0.04823 -1.124479,-0.04961 -1.44694,-0.0014 -0.208084,0.0303 -0.424436,0.07304 -0.515386,0.101978 -0.02067,0.0055 -0.03307,0 -0.03307,-0.01792 0,-0.0303 0.175011,-0.110243 0.347265,-0.157099 0.187414,-0.05099 0.429948,-0.08544 0.76619,-0.107485 0.661458,-0.04272 1.215429,0.03306 2.666504,0.366558 0.599447,0.137802 0.640789,0.146071 1.437294,0.279742 0.350022,0.05926 0.766187,0.133667 0.926042,0.165364 0.410654,0.08268 1.165821,0.278363 1.317402,0.34313 0.115757,0.04823 0.128161,0.05926 0.125402,0.106108 -0.0014,0.02755 0.0041,0.05099 0.01379,0.05099 0.02755,0 0.07717,0.06063 0.06615,0.07992 -0.0069,0.0096 -0.02618,0.01379 -0.0441,0.0083 -0.0813,-0.0248 -1.103809,-0.07028 -1.980244,-0.08682 -0.530542,-0.01101 -1.172707,-0.02893 -1.426266,-0.04134 -0.638034,-0.0303 -1.874134,-0.01379 -2.189704,0.02893 -0.438217,0.05788 -0.919152,0.186034 -1.205784,0.319705 m -0.192925,1.488281 c -0.158475,0.15434 -0.221864,0.198438 -0.221864,0.15434 0,-0.03997 0.132291,-0.208086 0.275607,-0.351401 0.28112,-0.279743 0.672483,-0.504363 1.219564,-0.702801 0.694531,-0.25218 1.028017,-0.305922 2.786392,-0.451996 1.397332,-0.117133 1.528244,-0.124023 2.151119,-0.125399 0.582909,-0.0014 0.804775,0.01655 0.94947,0.07717 0.117133,0.04823 0.07579,0.0689 -0.106112,0.05236 -0.394116,-0.03583 -1.51033,-0.0014 -2.328884,0.07166 -0.117132,0.01101 -0.468531,0.03721 -0.781346,0.05788 -1.397332,0.09508 -1.909962,0.175009 -2.516299,0.38723 -0.649056,0.227376 -1.044552,0.457507 -1.427647,0.830957 m 0.615983,1.869998 c -0.01791,0.02755 -0.04823,0.02067 -0.04823,-0.0097 0,-0.08544 0.454752,-0.370691 1.408355,-0.884699 1.300867,-0.698666 2.130448,-1.058334 3.511242,-1.518599 0.869541,-0.290767 1.911339,-0.529167 1.732192,-0.396875 -0.01792,0.01242 -0.130913,0.05099 -0.250801,0.08406 -0.737252,0.201196 -0.903993,0.249428 -1.172711,0.336243 -1.203028,0.388606 -2.44602,0.902614 -3.392731,1.401466 -1.150662,0.606337 -1.761132,0.943956 -1.787315,0.988053 m 6.199793,-0.0041 c -0.114378,0.06615 -0.112998,0.06615 -0.147451,0.0441 -0.04272,-0.02618 -0.0069,-0.07442 0.166744,-0.219111 0.09095,-0.07717 0.274229,-0.24391 0.405144,-0.367933 0.504363,-0.479559 1.13688,-0.959114 1.824521,-1.383552 0.159854,-0.09784 0.39412,-0.246669 0.520901,-0.32935 0.235642,-0.151585 0.299032,-0.180523 0.312812,-0.14056 0.01101,0.02893 -0.4768,0.367936 -1.005967,0.701421 -0.675238,0.423058 -1.112076,0.770322 -1.632973,1.293978 -0.210841,0.212217 -0.378961,0.363802 -0.443731,0.401009 m -5.061534,0.679373 c -0.194303,0.07579 -0.293522,0.09508 -0.267339,0.05374 0.01378,-0.02342 0.22462,-0.126778 1.116211,-0.547081 1.796963,-0.847492 2.407434,-1.205784 3.742751,-2.197971 0.494718,-0.367937 0.622875,-0.447862 0.813044,-0.514008 0.129536,-0.0441 0.186034,-0.02205 0.08544,0.03447 -0.241159,0.133668 -0.372071,0.221862 -0.609096,0.410655 -0.39274,0.312815 -1.237477,0.935687 -1.525485,1.124479 -0.341753,0.223241 -0.691776,0.420303 -1.204408,0.676617 -0.534677,0.267339 -1.682584,0.779971 -2.151117,0.959115 m 5.838749,0.130912 c -0.112998,0.0055 -0.0014,-0.0565 0.355533,-0.201192 0.581533,-0.234266 1.208539,-0.584289 1.788693,-1.000457 0.62012,-0.443727 0.953604,-0.72347 1.553051,-1.298109 0.278363,-0.268718 0.396875,-0.370696 0.412034,-0.356913 0.03306,0.03306 -0.05375,0.162606 -0.268718,0.39963 -0.527791,0.584289 -1.404221,1.295355 -2.089108,1.69223 -0.395495,0.230134 -1.142393,0.589802 -1.387683,0.668351 -0.133671,0.04272 -0.259073,0.0813 -0.279742,0.08544 -0.02205,0.0055 -0.05926,0.0097 -0.08406,0.01101 m 1.010102,0.664217 c -0.08131,0.0193 -0.325219,0.0041 -0.333485,-0.02067 -0.0096,-0.03168 0.07717,-0.06752 0.341754,-0.139182 0.570505,-0.155719 1.400087,-0.440972 1.858973,-0.639409 0.582909,-0.25218 0.921907,-0.439593 1.502061,-0.832334 0.461641,-0.311439 0.706935,-0.512632 0.953604,-0.77997 0.115753,-0.125402 0.249424,-0.268718 0.297653,-0.318329 0.08682,-0.08957 0.15434,-0.118509 0.152964,-0.0689 0,0.03996 -0.362426,0.508497 -0.527787,0.684886 -0.08544,0.08957 -0.226,0.219107 -0.31006,0.285253 -0.254939,0.198437 -1.025261,0.70418 -1.284334,0.841982 -0.549835,0.294901 -1.220939,0.569129 -1.958191,0.799263 -0.228752,0.07166 -0.344509,0.10335 -0.693152,0.187414"
         id="path2308"
         style="stroke-width:0.352778" />
      <path
         fill-rule="nonzero"
         fill="#ffffff"
         fill-opacity="1"
         d="m 55.227685,84.806583 c -0.06202,0.0069 -0.14194,0.02342 -0.177768,0.03858 -0.03721,0.01517 -0.192928,0.04548 -0.347268,0.06891 -0.152961,0.02205 -0.336239,0.0565 -0.40514,0.07717 -0.06891,0.02067 -0.136427,0.03583 -0.151586,0.03443 -0.01379,-0.0028 -0.08682,-0.121267 -0.16123,-0.264583 -0.177768,-0.34313 -0.529166,-0.992188 -0.588422,-1.085893 -0.0248,-0.04134 -0.04272,-0.08544 -0.03721,-0.09922 0.0096,-0.02343 0.242535,-0.07579 0.657324,-0.147451 0.286632,-0.04823 0.78686,-0.08406 0.906748,-0.06201 0.09509,0.01654 0.09509,0.01654 0.128161,0.122643 0.06752,0.209462 0.381716,1.167201 0.394116,1.198894 0.0193,0.04823 -0.08406,0.104733 -0.217727,0.118512"
         id="path2310"
         style="stroke-width:0.352778" />
      <path
         fill-rule="nonzero"
         fill="#ffffff"
         fill-opacity="1"
         d="m 48.691647,96.562627 c -0.07993,0.04547 -0.16123,-0.03447 -0.285252,-0.283877 -0.08544,-0.170878 -0.296281,-0.654568 -0.432703,-0.994942 C 47.8414,94.954454 47.797303,94.86626 47.682925,94.706409 47.374245,94.275082 47.104147,93.810685 46.795467,93.180921 46.552932,92.687582 46.497811,92.55529 46.435799,92.31 c -0.05926,-0.235644 -0.0813,-0.413413 -0.09646,-0.814419 -0.01242,-0.30317 -0.01101,-0.333488 0.02205,-0.369316 0.01792,-0.02067 0.173634,-0.107488 0.344513,-0.191548 0.170875,-0.08406 0.32108,-0.169499 0.334863,-0.192923 0.02755,-0.0441 0.08544,-0.05099 0.117133,-0.01379 0.01242,0.01379 0.03583,0.08544 0.05374,0.159854 0.02755,0.111623 0.03306,0.248046 0.03583,0.847493 0.0041,0.762056 0.01517,0.891593 0.118513,1.358748 0.09233,0.421679 0.242534,0.839223 0.598067,1.67845 0.502984,1.183735 0.573264,1.346341 0.665593,1.525488 0.101974,0.201193 0.110243,0.238401 0.06201,0.264584"
         id="path2312"
         style="stroke-width:0.352778" />
      <path
         fill-rule="nonzero"
         fill="#ffffff"
         fill-opacity="1"
         d="m 50.275013,88.966881 c -0.01655,0 -0.122643,0.03996 -0.237021,0.08819 -0.112998,0.04961 -0.275608,0.114378 -0.359667,0.144692 -0.08544,0.0303 -0.191548,0.05512 -0.235645,0.05512 -0.165365,0.0014 -0.257694,-0.16123 -0.16812,-0.297656 0.04823,-0.07304 0.598067,-0.337619 0.701421,-0.337619 0.07028,0 0.08406,0.01101 0.202572,0.147451 0.126778,0.14883 0.151581,0.199817 0.09646,0.199817"
         id="path2314"
         style="stroke-width:0.352778" />
      <path
         fill-rule="nonzero"
         fill="#ffffff"
         fill-opacity="1"
         d="m 51.89421,88.367434 c -0.03583,0.0014 -0.08957,-0.05512 -0.221866,-0.227376 -0.177768,-0.234269 -0.176388,-0.231511 -0.165364,-0.260449 0.0055,-0.01379 0.208082,-0.104733 0.450617,-0.199817 0.600826,-0.237024 0.745522,-0.286632 0.752412,-0.263204 0.0041,0.01101 0.05099,0.08819 0.104729,0.172254 0.121267,0.191548 0.213596,0.370692 0.205327,0.398251 -0.0041,0.01242 -0.253559,0.101978 -0.55535,0.199817 -0.301787,0.09922 -0.559481,0.180524 -0.570505,0.180524"
         id="path2316"
         style="stroke-width:0.352778" />
      <path
         fill-rule="nonzero"
         fill="#ffffff"
         fill-opacity="1"
         d="m 52.814738,83.702773 0.03859,0.06201 c 0.07028,0.114378 0.731738,1.437295 0.731738,1.464857 0,0.02893 -0.213596,0.129533 -0.657327,0.310056 -0.141937,0.05788 -0.316946,0.132292 -0.384471,0.163989 -0.0689,0.03305 -0.151585,0.05788 -0.184658,0.05512 -0.05099,-0.0028 -0.06477,-0.02067 -0.132292,-0.14883 -0.03996,-0.07993 -0.158475,-0.292142 -0.261825,-0.472666 -0.103353,-0.180523 -0.238403,-0.423058 -0.300415,-0.540191 -0.06201,-0.115757 -0.136426,-0.248049 -0.16674,-0.292146 -0.02893,-0.0441 -0.05375,-0.08957 -0.05375,-0.100594 0,-0.02755 0.655948,-0.271473 1.172711,-0.436838 z m 0,0"
         id="path2318"
         style="stroke-width:0.352778" />
      <path
         fill-rule="nonzero"
         fill="#ffffff"
         fill-opacity="1"
         d="m 52.99664,78.944408 c -0.05926,0.03859 -0.209461,0.108863 -0.334863,0.155719 -0.498849,0.184655 -0.640789,0.256314 -0.903993,0.456131 -0.112999,0.08544 -0.23978,0.170875 -0.283877,0.190169 -0.103353,0.04685 -0.190168,0.04685 -0.230131,0.0028 -0.01792,-0.0193 -0.08957,-0.169499 -0.158475,-0.332109 -0.396875,-0.931552 -0.587043,-1.752864 -0.526411,-2.262738 0.04134,-0.345888 0.257693,-0.591177 0.522277,-0.591177 0.124022,0 0.337618,0.05926 0.445106,0.124022 0.146071,0.08544 0.428569,0.350023 0.661459,0.618741 0.281118,0.323839 0.394119,0.472665 0.537435,0.713824 0.126778,0.212217 0.356909,0.704176 0.370692,0.792371 0.0096,0.05512 0.0014,0.06615 -0.09922,0.132292"
         id="path2320"
         style="stroke-width:0.352778" />
      <path
         fill-rule="nonzero"
         fill="#ffffff"
         fill-opacity="1"
         d="m 51.505601,81.178207 c 0.01792,0.0069 0.259072,0.428572 0.490583,0.859896 l 0.106108,0.197061 -0.228755,0.108864 c -0.312815,0.151585 -0.730359,0.374827 -0.950845,0.511253 -0.135047,0.08406 -0.187414,0.106108 -0.198438,0.08819 -0.0083,-0.01379 -0.08131,-0.146071 -0.162609,-0.294901 -0.07993,-0.14745 -0.213597,-0.378961 -0.297656,-0.512628 -0.08268,-0.133671 -0.151582,-0.250804 -0.151582,-0.260453 0,-0.04272 1.342207,-0.713821 1.393194,-0.697286"
         id="path2322"
         style="stroke-width:0.352778" />
      <path
         fill-rule="nonzero"
         fill="#ffffff"
         fill-opacity="1"
         d="m 54.008118,81.52134 c -0.07717,0.0083 -0.198438,0.04547 -0.316946,0.09646 -0.106109,0.0441 -0.380341,0.148827 -0.607716,0.231511 -0.228756,0.0813 -0.446483,0.162606 -0.482315,0.179144 -0.0937,0.04134 -0.118508,0.03858 -0.130912,-0.0083 -0.0193,-0.07717 -0.172254,-0.373447 -0.267339,-0.519522 -0.05237,-0.07993 -0.133671,-0.225996 -0.180523,-0.325215 -0.08544,-0.173634 -0.08682,-0.179144 -0.04961,-0.206707 0.101977,-0.07442 1.225077,-0.4768 1.634356,-0.585664 0.158471,-0.04134 0.210838,-0.04961 0.225996,-0.03171 0.05788,0.07028 0.445107,0.968763 0.445107,1.033529 0,0.07028 -0.08682,0.114378 -0.270097,0.136426"
         id="path2324"
         style="stroke-width:0.352778" />
      <path
         fill-rule="nonzero"
         fill="#ffffff"
         fill-opacity="1"
         d="m 50.677402,79.698195 c -0.0193,0.01101 -0.06064,0.04961 -0.09233,0.08682 -0.186034,0.214976 -0.253559,0.263207 -0.636655,0.453376 -0.208082,0.103353 -0.427192,0.203948 -0.487824,0.223241 -0.14883,0.04685 -0.172255,0.04548 -0.228756,-0.01654 -0.106108,-0.114378 -0.432703,-0.635275 -0.624251,-0.997702 -0.06753,-0.128157 -0.190168,-0.333484 -0.272852,-0.458886 -0.08268,-0.124022 -0.162606,-0.267338 -0.177765,-0.318325 -0.01517,-0.04961 -0.06339,-0.159855 -0.104732,-0.245294 -0.136427,-0.272849 -0.16812,-0.40652 -0.16812,-0.704176 0,-0.249424 0.0028,-0.264583 0.05237,-0.350023 0.06201,-0.104729 0.17501,-0.205327 0.321081,-0.290766 0.203951,-0.115754 0.587047,-0.08544 0.811664,0.06477 0.300415,0.201193 0.556729,0.556726 1.208543,1.685339 0.332105,0.576019 0.352777,0.615986 0.394116,0.733118 0.03721,0.110243 0.03859,0.117133 0.0055,0.135047"
         id="path2326"
         style="stroke-width:0.352778" />
      <path
         fill-rule="nonzero"
         fill="#ffffff"
         fill-opacity="1"
         d="m 47.867583,81.314633 c -0.252183,0.183279 -0.463021,0.31006 -0.677996,0.412034 -0.143316,0.06752 -0.274229,0.08268 -0.350023,0.03996 -0.04547,-0.02618 -0.39274,-0.435459 -0.584288,-0.689018 -0.0689,-0.09095 -0.186034,-0.234269 -0.263204,-0.318329 -0.07579,-0.08544 -0.192927,-0.23702 -0.260449,-0.337619 -0.06615,-0.100598 -0.205327,-0.303166 -0.31006,-0.447862 -0.301791,-0.421678 -0.338998,-0.486448 -0.416168,-0.728983 -0.106109,-0.32935 -0.09508,-0.502984 0.04134,-0.653189 0.07993,-0.08819 0.179144,-0.121268 0.413413,-0.140561 0.32797,-0.02618 0.730359,0.03583 0.94809,0.14745 0.260449,0.132292 0.744139,0.536057 1.048685,0.873676 0.376206,0.417548 1.016991,1.262285 1.014236,1.3367 -0.0014,0.03583 -0.305925,0.290766 -0.603578,0.505738"
         id="path2328"
         style="stroke-width:0.352778" />
      <path
         fill-rule="nonzero"
         fill="#ffffff"
         fill-opacity="1"
         d="m 45.192808,85.554856 c 0.170878,-0.254935 0.596692,-0.71658 0.658703,-0.71658 0.04961,0 0.252183,0.141941 0.527791,0.369316 0.272849,0.223242 0.646299,0.56913 0.646299,0.596689 0,0.0441 -0.716579,0.542949 -0.916396,0.638034 -0.06339,0.0303 -0.128157,0.05512 -0.143316,0.05512 -0.07855,0 -0.829578,-0.514008 -0.902614,-0.61874 -0.0303,-0.04134 -0.01792,-0.136426 0.02205,-0.177769 0.01242,-0.01238 0.06063,-0.07854 0.107484,-0.146071"
         id="path2330"
         style="stroke-width:0.352778" />
      <path
         fill-rule="nonzero"
         fill="#ffffff"
         fill-opacity="1"
         d="m 50.310844,96.730747 c 0.08819,0.148826 0.165365,0.289387 0.172255,0.311436 0.0055,0.02342 -0.0028,0.06064 -0.01792,0.08268 -0.03583,0.05374 -0.08131,0.04961 -0.170879,-0.0097 -0.05374,-0.03721 -0.08819,-0.04685 -0.129536,-0.03858 -0.07441,0.01379 -0.279742,-0.03447 -0.395496,-0.09371 -0.226,-0.115753 -0.336243,-0.248045 -0.665593,-0.79926 -0.191548,-0.319705 -0.47129,-0.95636 -0.653189,-1.486906 -0.111622,-0.326594 -0.373451,-1.218184 -0.468535,-1.5999 -0.06201,-0.248049 -0.177765,-0.839226 -0.202568,-1.043174 -0.03583,-0.292146 -0.07855,-0.982543 -0.07855,-1.287089 0,-0.264583 0.0041,-0.297656 0.03306,-0.308681 0.0193,-0.0069 0.0565,-0.03583 0.08268,-0.06614 0.06064,-0.06615 0.293522,-0.184658 0.396875,-0.201193 0.04272,-0.0069 0.113002,-0.0028 0.157099,0.0096 0.07717,0.02067 0.07855,0.02067 0.07855,0.111622 0,0.05099 0.01792,0.225997 0.03996,0.391361 0.02205,0.163989 0.05374,0.502984 0.07028,0.752408 0.05926,0.862655 0.117133,1.240236 0.271473,1.763889 0.14883,0.504363 0.519522,1.535137 0.719339,2.000913 0.157095,0.365182 0.589798,1.223698 0.760677,1.51033"
         id="path2332"
         style="stroke-width:0.352778" />
      <path
         fill-rule="nonzero"
         fill="#ffffff"
         fill-opacity="1"
         d="m 50.608501,88.830454 c -0.01517,0.0014 -0.256318,-0.214975 -0.337623,-0.30179 -0.02342,-0.0248 -0.04272,-0.05788 -0.04272,-0.07166 0,-0.0248 0.369316,-0.209462 0.660079,-0.327971 0.09233,-0.03721 0.213597,-0.08957 0.268718,-0.117132 0.05512,-0.02618 0.106109,-0.04823 0.113002,-0.04823 0.01655,0 0.308681,0.337619 0.355533,0.410654 0.02067,0.03168 0.02893,0.06063 0.01792,0.07166 -0.01517,0.01517 -0.243914,0.100598 -0.855761,0.323839 -0.09095,0.03306 -0.170879,0.06064 -0.179144,0.06064"
         id="path2334"
         style="stroke-width:0.352778" />
      <path
         fill-rule="nonzero"
         fill="#ffffff"
         fill-opacity="1"
         d="m 48.139056,83.042694 c 0.09233,-0.0565 0.268715,-0.166744 0.391361,-0.246669 0.493339,-0.321085 0.934311,-0.578778 0.957736,-0.559485 0.01242,0.01101 0.107487,0.15572 0.210841,0.32246 0.103353,0.166744 0.256314,0.403769 0.340374,0.529167 0.08406,0.124026 0.14745,0.234269 0.140561,0.245294 -0.0069,0.01101 -0.139182,0.106108 -0.296277,0.212217 -0.15572,0.104729 -0.447862,0.316949 -0.649058,0.471289 -0.201193,0.152961 -0.381717,0.278363 -0.399631,0.279743 -0.03721,0.0028 -0.155716,-0.140561 -0.525032,-0.635279 -0.14745,-0.195679 -0.289387,-0.378957 -0.31557,-0.407899 -0.02618,-0.02893 -0.04272,-0.06477 -0.03721,-0.07993 0.0069,-0.01517 0.08682,-0.07442 0.181903,-0.130912"
         id="path2336"
         style="stroke-width:0.352778" />
      <path
         fill-rule="nonzero"
         fill="#ffffff"
         fill-opacity="1"
         d="m 52.816117,88.66509 c 0.02755,-0.05788 0.0565,-0.07579 0.139181,-0.09371 0.0303,-0.0069 0.09922,-0.05374 0.154341,-0.106109 0.212217,-0.199813 0.531922,-0.248045 0.673862,-0.100595 0.133667,0.140558 0.186034,0.50436 0.150205,1.050065 -0.01242,0.183278 -0.03447,0.410654 -0.04961,0.507118 -0.05099,0.32246 -0.197058,1.382172 -0.213596,1.543402 -0.0069,0.06339 -0.02893,0.237021 -0.04823,0.385851 -0.05099,0.383096 -0.08406,0.960491 -0.07028,1.242992 0.02618,0.531921 0.154341,1.132744 0.456128,2.131822 0.09646,0.318329 0.197062,0.691776 0.221865,0.829581 0.02618,0.137802 0.0565,0.297656 0.0689,0.354154 0.0441,0.206706 -0.0069,0.366561 -0.177764,0.545705 -0.133671,0.141936 -0.230135,0.08957 -0.389986,-0.206707 -0.08819,-0.162609 -0.117132,-0.237021 -0.126781,-0.326595 -0.0083,-0.06339 -0.03996,-0.180523 -0.07304,-0.260448 -0.183279,-0.454752 -0.388606,-1.230588 -0.48507,-1.842439 -0.08268,-0.519518 -0.15434,-1.218184 -0.184658,-1.81212 -0.0055,-0.117133 -0.0248,-0.464397 -0.04272,-0.771702 -0.02205,-0.383092 -0.0303,-0.826823 -0.02893,-1.398707 0.0014,-0.461642 -0.0055,-0.960494 -0.01792,-1.109321 -0.02067,-0.279742 -0.0069,-0.45751 0.0441,-0.562239"
         id="path2338"
         style="stroke-width:0.352778" />
      <path
         fill-rule="nonzero"
         fill="#ffffff"
         fill-opacity="1"
         d="M 45.101858,95.322391 C 44.91169,95.16943 44.772509,95.019224 44.58234,94.758776 44.264011,94.321934 44.036635,93.919549 43.863002,93.482711 43.652164,92.95079 43.621846,92.653133 43.756893,92.39406 c 0.02618,-0.05237 0.04685,-0.106108 0.04685,-0.119888 0,-0.07993 0.31006,-0.165364 0.55673,-0.15434 0.08544,0.0041 0.165364,0.01238 0.175009,0.0193 0.01101,0.0069 0.01792,0.119892 0.01792,0.265963 -0.0014,0.290766 0.01655,0.39412 0.157099,0.888834 0.206703,0.726228 0.40101,1.165821 0.755163,1.711522 0.14883,0.228756 0.170879,0.31695 0.08682,0.337623 -0.02618,0.0069 -0.06477,0.0028 -0.08544,-0.0097 -0.07304,-0.03858 -0.100598,-0.02618 -0.100598,0.04685 0,0.110243 -0.07442,0.09371 -0.264584,-0.05788"
         id="path2340"
         style="stroke-width:0.352778" />
      <path
         fill-rule="nonzero"
         fill="#ffffff"
         fill-opacity="1"
         d="m 45.665477,81.715643 c 0.128157,0.132291 0.314191,0.314191 0.414789,0.405144 l 0.183279,0.16674 -0.395496,0.395499 c -0.253559,0.253559 -0.467155,0.447862 -0.595312,0.542947 -0.110243,0.07993 -0.212221,0.146071 -0.224621,0.146071 -0.0565,0 -1.10381,-0.992188 -1.343589,-1.27193 -0.06752,-0.07993 -0.198438,-0.23151 -0.289387,-0.337619 -0.195683,-0.230131 -0.460266,-0.624251 -0.505739,-0.755163 -0.04548,-0.132292 -0.05788,-0.307305 -0.03306,-0.432707 0.02342,-0.111619 0.07855,-0.18052 0.228755,-0.283873 0.170875,-0.118512 0.526408,-0.100598 0.828199,0.04272 0.186037,0.08819 0.551215,0.337619 0.768946,0.523656 0.09508,0.08268 0.299035,0.254935 0.451996,0.384472 0.154341,0.129536 0.384472,0.343132 0.511253,0.474045"
         id="path2342"
         style="stroke-width:0.352778" />
      <path
         fill-rule="nonzero"
         fill="#ffffff"
         fill-opacity="1"
         d="m 47.184076,96.083068 c -0.0028,0 -0.0303,-0.01101 -0.06063,-0.02755 -0.06477,-0.03305 -0.176389,-0.187413 -0.374827,-0.518142 -0.173633,-0.288011 -0.468531,-0.753787 -0.62425,-0.986677 -0.278363,-0.416169 -0.744143,-1.289844 -0.853007,-1.60128 -0.08268,-0.23289 -0.165364,-0.580153 -0.194302,-0.804774 l -0.02343,-0.184658 0.05512,-0.0689 c 0.04548,-0.05788 0.08544,-0.07717 0.271473,-0.137806 0.118512,-0.03858 0.23151,-0.06752 0.250804,-0.06339 0.03996,0.0069 0.168119,0.239776 0.257693,0.465776 0.03168,0.08406 0.110243,0.348643 0.172254,0.588423 0.212217,0.824068 0.356913,1.198894 0.844737,2.175923 0.158475,0.316946 0.307305,0.625626 0.33073,0.686262 0.02342,0.05926 0.05926,0.124022 0.07993,0.141937 0.09922,0.08957 0.07855,0.283876 -0.03305,0.30868 -0.0303,0.0069 -0.06339,0.01379 -0.07442,0.01792 -0.01101,0.0041 -0.02205,0.0069 -0.0248,0.0083"
         id="path2344"
         style="stroke-width:0.352778" />
      <path
         fill-rule="nonzero"
         fill="#ffffff"
         fill-opacity="1"
         d="m 50.652598,86.709653 c -0.01655,0 -0.04823,-0.03306 -0.07166,-0.07304 -0.07304,-0.129537 -0.514008,-0.724849 -0.760677,-1.02664 -0.130912,-0.16123 -0.248045,-0.305926 -0.257693,-0.321081 -0.02618,-0.03997 0.0689,-0.121267 0.405144,-0.344512 0.296277,-0.197058 0.862651,-0.501604 0.905372,-0.485069 0.01379,0.0055 0.08819,0.113001 0.165365,0.2384 0.07717,0.125402 0.292142,0.468534 0.475421,0.763435 0.183278,0.293522 0.334863,0.542947 0.334863,0.552592 0,0.0097 -0.06339,0.05237 -0.14056,0.09508 -0.07717,0.04272 -0.338995,0.194306 -0.582909,0.338998 -0.243914,0.143316 -0.457511,0.261828 -0.472666,0.261828"
         id="path2346"
         style="stroke-width:0.352778" />
      <path
         fill-rule="nonzero"
         fill="#ffffff"
         fill-opacity="1"
         d="m 47.281916,85.463907 c -0.05099,-0.03721 -0.208083,-0.173634 -0.351399,-0.30317 -0.627009,-0.56913 -0.706935,-0.65181 -0.691776,-0.715201 0.0069,-0.02755 0.223241,-0.228755 0.454752,-0.421679 0.166744,-0.139181 0.676617,-0.516766 0.698666,-0.516766 0.0441,0 1.022505,1.09003 1.022505,1.138262 0,0.01238 -0.07304,0.07579 -0.679372,0.584288 l -0.362427,0.303167 z m 0,0"
         id="path2348"
         style="stroke-width:0.352778" />
      <path
         fill-rule="nonzero"
         fill="#ffffff"
         fill-opacity="1"
         d="m 48.221737,88.135923 c -0.08406,0 -0.205327,-0.0689 -0.32246,-0.184658 -0.06339,-0.06201 -0.172255,-0.165364 -0.243914,-0.228755 -0.107485,-0.09784 -0.128157,-0.125402 -0.128157,-0.177765 0,-0.104732 0.398254,-0.811664 0.458886,-0.814423 0.01379,-0.0014 0.155719,0.118513 0.31557,0.263208 0.16123,0.146071 0.384475,0.347264 0.497473,0.446483 0.202572,0.177768 0.25218,0.228755 0.25218,0.254938 0,0.03583 -0.527787,0.350023 -0.680748,0.405144 -0.05512,0.0193 -0.122647,0.03583 -0.14883,0.03583"
         id="path2350"
         style="stroke-width:0.352778" />
      <path
         fill-rule="nonzero"
         fill="#ffffff"
         fill-opacity="1"
         d="m 53.873071,87.750073 c -0.132292,0.04272 -0.259069,0.07717 -0.281118,0.07717 -0.03305,0.0014 -0.07579,-0.0565 -0.208086,-0.281122 -0.09233,-0.15434 -0.163985,-0.292142 -0.159851,-0.304546 0.0041,-0.01238 0.263204,-0.09784 0.57464,-0.190168 l 0.566374,-0.16812 0.03306,0.0441 c 0.04961,0.06477 0.310059,0.57464 0.299035,0.585664 -0.0041,0.0041 -0.137805,0.04272 -0.294901,0.08544 -0.158475,0.04134 -0.396875,0.110243 -0.529167,0.151586"
         id="path2352"
         style="stroke-width:0.352778" />
      <path
         fill-rule="nonzero"
         fill="#ffffff"
         fill-opacity="1"
         d="m 54.548309,88.417041 c -0.02067,-0.02205 -0.04685,-0.0689 -0.05925,-0.103353 -0.02067,-0.05788 -0.01792,-0.06615 0.04547,-0.128157 0.08406,-0.08131 0.285256,-0.144692 0.525032,-0.165365 0.09508,-0.0083 0.308681,-0.03721 0.47267,-0.06615 0.260449,-0.0441 0.312815,-0.04823 0.401009,-0.02893 0.05512,0.01242 0.128157,0.01654 0.159851,0.0097 0.09371,-0.02067 0.133671,0.02893 0.133671,0.163985 0,0.09922 -0.01517,0.141937 -0.14194,0.39963 -0.07855,0.158475 -0.231511,0.431327 -0.338995,0.604961 -0.288011,0.464397 -0.47129,0.87092 -0.609095,1.350476 -0.108864,0.378961 -0.242535,1.065223 -0.318326,1.637111 -0.04548,0.343129 -0.08406,0.511249 -0.136426,0.596688 -0.04272,0.07028 -0.119888,0.08131 -0.151585,0.02205 -0.02618,-0.04685 -0.02618,-0.474045 0,-0.713825 0.05926,-0.56775 0.07855,-0.835088 0.09508,-1.327047 0.0096,-0.299036 0.03306,-0.733119 0.04961,-0.964629 0.04134,-0.544326 0.0303,-0.859896 -0.03859,-1.083137 -0.02755,-0.08957 -0.06615,-0.181903 -0.08819,-0.203952"
         id="path2354"
         style="stroke-width:0.352778" />
      <path
         fill-rule="nonzero"
         fill="#ffffff"
         fill-opacity="1"
         d="m 49.948418,87.139601 c -0.201192,0.121267 -0.423058,0.256314 -0.491959,0.300412 -0.0689,0.0441 -0.132292,0.07993 -0.141937,0.07993 -0.03168,0 -0.292145,-0.246666 -0.520901,-0.493335 -0.129533,-0.139182 -0.305922,-0.31695 -0.394116,-0.395499 -0.104733,-0.09508 -0.158475,-0.157096 -0.158475,-0.184655 0,-0.04823 0.359668,-0.399633 0.70969,-0.69591 0.198438,-0.16812 0.221862,-0.183279 0.263204,-0.163986 0.02618,0.01238 0.150206,0.146072 0.278363,0.297657 0.326595,0.387226 0.54157,0.635275 0.71107,0.822688 0.106108,0.117133 0.141936,0.16812 0.129536,0.187413 -0.0096,0.01379 -0.183282,0.125402 -0.384475,0.24529"
         id="path2356"
         style="stroke-width:0.352778" />
      <path
         fill-rule="nonzero"
         fill="#ffffff"
         fill-opacity="1"
         d="m 63.854202,93.525429 c 0.03721,0.01379 0.348643,0.24529 0.686262,0.511253 0.312815,0.24529 0.505743,0.425813 0.621496,0.580154 l 0.07855,0.103353 -0.06339,0.118512 c -0.03583,0.06477 -0.07166,0.128157 -0.08268,0.141937 -0.0248,0.03171 -0.07304,0.0303 -0.122646,-0.0041 -0.02205,-0.01655 -0.08681,-0.04685 -0.144696,-0.06752 -0.118508,-0.04548 -0.197058,-0.114377 -0.40514,-0.359667 -0.31144,-0.369316 -0.40101,-0.505742 -0.520901,-0.78135 -0.07855,-0.181899 -0.0937,-0.260449 -0.04685,-0.242535 m 1.346345,0.689021 c -0.05512,-0.06339 -0.243914,-0.22462 -0.418924,-0.359667 -0.424437,-0.325219 -0.78135,-0.63941 -0.78135,-0.686266 0,-0.02618 0.289391,-0.01792 0.428572,0.01242 0.165365,0.03447 0.285253,0.08819 0.405141,0.179144 0.119892,0.09095 0.373451,0.406523 0.435462,0.54157 0.06753,0.148827 0.09784,0.427193 0.04548,0.427193 -0.0069,0 -0.05926,-0.05099 -0.114377,-0.114378 m -3.307292,-3.55534 c 0.05099,0.03583 0.128157,0.09095 0.172254,0.125402 0.0441,0.03447 0.133668,0.09233 0.198438,0.129536 0.146071,0.08268 0.234266,0.166741 0.332105,0.31695 0.05512,0.08682 0.08819,0.152961 0.09233,0.190168 0.09922,0.133668 0.159854,0.276984 0.187413,0.443728 0.05237,0.01379 0.08268,0.101974 0.152965,0.402389 0.07166,0.299032 0.08406,0.38585 0.08406,0.55397 v 0.201193 l -0.08819,0.117133 c -0.106108,0.140561 -0.152964,0.23151 -0.24529,0.475424 -0.101977,0.265959 -0.186037,0.617361 -0.199817,0.829578 -0.01242,0.205328 0.02618,0.540191 0.09095,0.774457 0.04548,0.168123 0.06477,0.265963 0.104733,0.533301 0.01517,0.108867 0.05099,0.261828 0.07993,0.337619 0.02755,0.07717 0.08819,0.246669 0.132292,0.378961 0.09646,0.282497 0.130912,0.329353 0.23702,0.329353 0.04134,0 0.07993,-0.0055 0.08682,-0.01242 0.0069,-0.0055 0.05374,-0.0193 0.103353,-0.02893 0.110243,-0.02067 0.176389,-0.07717 0.192924,-0.166744 0.01655,-0.08819 -0.01792,-0.197058 -0.118512,-0.370692 -0.04547,-0.07992 -0.157096,-0.305925 -0.246666,-0.501604 -0.242535,-0.530546 -0.292146,-0.720715 -0.289391,-1.138262 0.0014,-0.458887 0.08957,-0.80753 0.256318,-1.03215 0.03996,-0.05237 0.08682,-0.122644 0.101974,-0.154341 0.0441,-0.08406 0.177765,-0.206706 0.217731,-0.198437 0.01792,0.0028 0.05099,0.0303 0.07304,0.05926 0.03583,0.04823 0.03721,0.05374 0.0069,0.08819 -0.02205,0.0248 -0.03306,0.07028 -0.03306,0.14883 0,0.06339 -0.01242,0.219107 -0.02893,0.345885 -0.05926,0.493338 -0.02755,0.830957 0.133667,1.446942 0.08406,0.318326 0.168123,0.527788 0.299036,0.745519 0.146071,0.24391 0.179144,0.275607 0.270093,0.275607 0.05926,0 0.09095,-0.01379 0.137806,-0.0565 0.05926,-0.0565 0.06063,-0.06201 0.05099,-0.192923 -0.0069,-0.110243 -0.02618,-0.170879 -0.107488,-0.341754 -0.108864,-0.23151 -0.210837,-0.538815 -0.282497,-0.854385 -0.05512,-0.243911 -0.05788,-0.283877 -0.02205,-0.275608 0.01517,0.0028 0.09922,0.09095 0.186038,0.195683 0.186033,0.223241 0.311435,0.325215 0.602202,0.491959 0.177764,0.103353 0.221862,0.119888 0.274228,0.110243 0.09646,-0.01792 0.195682,-0.141937 0.23151,-0.290767 0.0083,-0.03168 0.03859,-0.114377 0.0689,-0.184658 0.08544,-0.192923 0.135051,-0.446482 0.135051,-0.684882 0,-0.243915 -0.03168,-0.380341 -0.139185,-0.606337 -0.06615,-0.139182 -0.106109,-0.191548 -0.272849,-0.356913 -0.14194,-0.14056 -0.23978,-0.217731 -0.359668,-0.283876 -0.213596,-0.119888 -0.698665,-0.279743 -0.895727,-0.297657 -0.158475,-0.01379 -0.177765,-0.03306 -0.111619,-0.114377 0.07166,-0.08957 0.214972,-0.110243 0.372068,-0.05512 0.04686,0.01655 0.09509,0.0248 0.108867,0.0193 0.06477,-0.0248 -0.0055,-0.195682 -0.126781,-0.304546 -0.08406,-0.07717 -0.150206,-0.114377 -0.220486,-0.125402 -0.0565,0.03447 -0.122644,0.0565 -0.198438,0.05788 -0.03168,0.02893 -0.06201,0.06891 -0.09784,0.124026 -0.03583,0.0565 -0.07579,0.101974 -0.08681,0.101974 -0.02343,0 -0.01655,-0.118512 0.0083,-0.250804 -0.136427,-0.02755 -0.261825,-0.118512 -0.310057,-0.272852 -0.0028,0.0014 -0.0083,0.0041 -0.01242,0.0041 -0.04134,0 -0.04961,-0.04685 -0.04961,-0.267338 0,-0.114378 -0.0083,-0.212217 -0.02343,-0.300412 -0.0028,-0.01379 -0.0055,-0.02755 -0.0083,-0.03996 -0.03168,-0.146075 -0.08682,-0.270098 -0.180523,-0.405145 -0.02893,-0.04272 -0.06752,-0.125401 -0.08682,-0.183278 -0.147451,-0.453376 -0.344509,-0.62012 -0.600827,-0.502984 -0.08819,0.03996 -0.122643,0.08544 -0.122643,0.163986 0,0.06477 -0.03305,0.07717 -0.119891,0.03996 -0.08406,-0.03447 -0.151582,-0.01654 -0.198438,0.0565 -0.04823,0.07304 -0.01101,0.159851 0.101978,0.237021"
         id="path2358"
         style="stroke-width:0.352778" />
      <path
         fill-rule="nonzero"
         fill="#ffffff"
         fill-opacity="1"
         d="m 42.12392,82.656843 c 0.09508,-0.09508 0.206703,-0.110243 0.41341,-0.0565 0.494714,0.126782 1.134124,0.500229 2.107021,1.226454 0.285253,0.214975 0.286632,0.216355 0.25907,0.321084 -0.03858,0.143316 -0.07304,0.187413 -0.396875,0.511252 -0.235645,0.235645 -0.341754,0.327974 -0.417544,0.363802 -0.05512,0.02618 -0.111623,0.04685 -0.125402,0.04685 -0.06339,0 -0.775836,-0.615982 -1.20165,-1.040419 -0.348643,-0.348644 -0.606336,-0.726225 -0.701421,-1.030771 -0.04685,-0.14883 -0.02755,-0.250804 0.06339,-0.341754"
         id="path2360"
         style="stroke-width:0.352778" />
      <path
         fill-rule="nonzero"
         fill="#ffffff"
         fill-opacity="1"
         d="m 64.202845,85.105615 c -0.04961,0.05512 -0.104729,0.09922 -0.121267,0.09922 -0.06201,0 -0.188789,-0.110243 -0.369312,-0.321081 -0.101978,-0.119891 -0.213597,-0.267338 -0.249425,-0.327974 -0.03583,-0.06201 -0.08957,-0.152961 -0.119891,-0.203948 -0.02893,-0.04961 -0.06752,-0.14194 -0.08544,-0.203951 l -0.03168,-0.112998 0.06201,-0.09095 c 0.125402,-0.186037 0.377582,-0.446486 0.679373,-0.698666 l 0.175013,-0.14745 0.175009,0.0096 c 0.219107,0.01101 0.293522,0.04685 0.435462,0.210842 0.224617,0.259069 0.270094,0.340374 0.270094,0.487824 0,0.132292 -0.04823,0.276987 -0.144696,0.427193 -0.106108,0.16674 -0.508494,0.687641 -0.675237,0.872296"
         id="path2362"
         style="stroke-width:0.352778" />
      <path
         fill-rule="nonzero"
         fill="#ffffff"
         fill-opacity="1"
         d="m 49.475752,89.985251 c 0.03583,-0.117136 0.03583,-0.118512 -0.0014,-0.165364 -0.08544,-0.108867 -0.02067,-0.208086 0.184658,-0.285256 0.195683,-0.07166 0.451997,-0.124023 0.607717,-0.124023 0.118508,0 0.141936,0.0055 0.181899,0.04548 0.06201,0.06201 0.07717,0.176389 0.06201,0.48231 -0.0069,0.139182 -0.01792,0.440973 -0.02618,0.669728 -0.01242,0.463021 -0.0028,0.56086 0.100598,1.03904 0.03583,0.165364 0.118512,0.615985 0.183279,1.000456 0.210841,1.270551 0.332108,1.75011 0.647679,2.559019 0.286631,0.740004 0.556725,1.462098 0.636654,1.707388 0.04823,0.143316 0.0937,0.272852 0.101974,0.286632 0.0014,0.0014 0.0041,0.0028 0.0069,0.0055 -0.07992,0.01238 -0.169499,0.05099 -0.214976,0.107484 -0.0041,0.0055 -0.0096,0.0097 -0.01379,0.01379 -0.03858,0.02067 -0.07717,0.04272 -0.114378,0.06615 0.01792,-0.03859 0.0055,-0.05099 -0.05926,-0.08131 -0.237021,-0.113002 -0.580153,-0.526411 -0.881944,-1.062468 -0.144692,-0.257693 -0.321081,-0.646299 -0.540191,-1.189249 -0.201193,-0.49747 -0.264584,-0.686262 -0.491959,-1.455208 -0.248046,-0.833713 -0.311436,-1.114831 -0.412034,-1.841059 -0.05512,-0.401006 -0.06201,-0.50436 -0.06201,-0.879186 0,-0.442352 0.02343,-0.63941 0.104733,-0.899859"
         id="path2364"
         style="stroke-width:0.352778" />
      <path
         fill-rule="nonzero"
         fill="#ffffff"
         fill-opacity="1"
         d="m 53.257089,97.184123 c -0.0565,0.0055 -0.112998,0.01517 -0.16812,0.0303 -0.04548,0.01101 -0.08268,0.02893 -0.117136,0.04961 -0.04961,-0.0055 -0.09784,-0.0097 -0.144692,-0.01101 l 0.0096,-0.0193 -0.04823,-0.03858 c -0.02618,-0.02205 -0.07992,-0.06339 -0.118508,-0.09371 -0.09095,-0.07166 -0.190172,-0.279742 -0.336243,-0.70831 -0.06339,-0.186038 -0.186034,-0.523657 -0.272853,-0.749653 -0.08543,-0.227376 -0.186034,-0.514008 -0.221862,-0.636655 -0.169499,-0.578774 -0.560863,-2.235179 -0.644923,-2.732648 -0.08819,-0.515387 -0.106109,-0.705556 -0.106109,-1.136883 0.0014,-0.620116 0.06615,-1.055578 0.231511,-1.542023 0.0689,-0.206707 0.08406,-0.267342 0.06614,-0.297657 -0.03305,-0.06201 -0.02342,-0.136426 0.02343,-0.183278 0.05926,-0.05788 0.374826,-0.183282 0.502983,-0.198438 0.09508,-0.01101 0.106109,-0.0083 0.143316,0.03858 0.05512,0.07028 0.07304,0.248048 0.03721,0.350022 -0.01517,0.04272 -0.03305,0.155716 -0.03996,0.250804 -0.0083,0.09508 -0.0303,0.355533 -0.05099,0.578774 -0.05925,0.666972 -0.100595,1.466233 -0.08819,1.696364 0.02618,0.434082 0.150209,1.076251 0.369316,1.900315 0.179144,0.675241 0.332109,1.134128 0.534677,1.601283 0.276987,0.63941 0.305926,0.713821 0.374827,0.981163 0.132291,0.501604 0.14194,0.577395 0.09371,0.684883 -0.01242,0.02755 -0.02205,0.104733 -0.02893,0.186037"
         id="path2366"
         style="stroke-width:0.352778" />
      <path
         fill-rule="nonzero"
         fill="#ffffff"
         fill-opacity="1"
         d="m 43.386201,100.86486 c 0.01517,-0.12402 0.05099,-0.17777 0.150206,-0.22875 0.09784,-0.051 0.133671,-0.0386 0.133671,0.0441 0,0.10611 0.05512,0.28801 0.118512,0.38585 0.07441,0.11714 0.223241,0.24943 0.376202,0.33762 0.06615,0.0386 0.115757,0.0758 0.110243,0.0841 -0.0096,0.0165 -0.225996,-0.0413 -0.376202,-0.0992 -0.12816,-0.051 -0.301791,-0.14607 -0.359671,-0.19843 -0.0248,-0.022 -0.07166,-0.0827 -0.104729,-0.13367 -0.05374,-0.0827 -0.05788,-0.10335 -0.04823,-0.19155 m 0.89159,-0.33624 c -0.101974,-0.0482 -0.183279,-0.0951 -0.183279,-0.10335 0,-0.0317 0.06339,-0.0372 0.569129,-0.0413 0.529167,-0.004 0.547085,-0.001 0.54846,0.0716 0.0014,0.0551 0.101974,0.11025 0.263208,0.1447 0.191544,0.0413 0.358288,0.11162 0.439593,0.18741 0.0303,0.0276 0.108863,0.13505 0.175009,0.23565 0.06615,0.10059 0.15572,0.21497 0.201196,0.25356 0.09509,0.0813 0.271474,0.17776 0.412031,0.22599 0.111622,0.0386 0.129536,0.0786 0.04686,0.1006 -0.02893,0.007 -0.254939,0.04 -0.501608,0.073 -0.24529,0.0317 -0.46991,0.062 -0.496094,0.0661 -0.126777,0.0207 -0.151585,0.0138 -0.202572,-0.0537 -0.03305,-0.0441 -0.117133,-0.1006 -0.246669,-0.16674 -0.323836,-0.16537 -0.347264,-0.18742 -0.4768,-0.44373 -0.150206,-0.29215 -0.279743,-0.42306 -0.54846,-0.54984 m 2.191081,-0.0841 c -0.192923,-0.0717 -0.181899,-0.10335 0.04272,-0.1254 0.248045,-0.0234 0.978404,-0.14194 1.429025,-0.23151 0.48231,-0.09646 0.830954,-0.191548 1.030771,-0.282501 0.107487,-0.04961 1.371148,-0.385851 1.438673,-0.383092 0.03447,0.0014 -0.114377,0.07441 -0.421682,0.205327 -0.297656,0.126778 -0.764812,0.363802 -1.047309,0.530546 -0.111619,0.0661 -0.179144,0.0937 -0.231511,0.0937 -0.111618,0.001 -0.358288,0.0496 -0.424434,0.0827 -0.06753,0.0358 -0.117132,0.10473 -0.133671,0.18603 -0.0069,0.0303 -0.05099,0.10198 -0.09784,0.15848 -0.107488,0.12678 -0.581533,0.5333 -0.62563,0.53467 -0.01792,0.001 -0.05788,-0.0386 -0.09095,-0.0896 -0.141936,-0.22186 -0.598068,-0.57739 -0.868165,-0.67937 m 0.903993,1.06798 c 0,-0.0441 0.516767,-0.52917 0.564995,-0.52917 0.01517,0 0.04823,0.0331 0.07304,0.073 0.04272,0.0634 0.14056,0.14883 0.241159,0.20946 0.02067,0.0124 0.0303,0.0289 0.02342,0.0372 -0.01792,0.0179 -0.796505,0.21635 -0.858517,0.21911 -0.0248,0.001 -0.0441,-0.003 -0.0441,-0.01 m -4.011468,0.0358 c 0.344509,0.21773 0.564995,0.28112 1.127235,0.32246 0.159854,0.0124 0.367936,0.0386 0.463021,0.0579 0.260448,0.0538 0.494714,0.0634 0.966004,0.0413 0.501608,-0.0248 0.7028,-0.0565 0.963249,-0.1502 0.129537,-0.0482 0.228755,-0.0717 0.299036,-0.0717 0.119888,-10e-4 0.119888,0 0.06752,0.14056 -0.08682,0.2384 0.07166,0.36242 0.774457,0.6022 0.190172,0.0648 0.456131,0.1695 0.591181,0.23289 0.363803,0.1695 0.570506,0.20257 0.89021,0.14056 0.210842,-0.04 0.260449,-0.0827 0.261829,-0.22049 0,-0.14745 -0.130913,-0.38171 -0.334864,-0.59531 -0.118512,-0.1254 -0.221862,-0.18879 -0.440972,-0.27699 -0.108864,-0.0427 -0.209462,-0.0896 -0.224621,-0.10197 -0.02067,-0.0207 0.05099,-0.0551 0.396875,-0.19155 0.23151,-0.0909 0.434082,-0.16536 0.449241,-0.16536 0.01655,10e-4 0.05099,0.033 0.07855,0.073 0.02618,0.0386 0.112998,0.12816 0.192923,0.19982 0.194303,0.17363 0.767567,0.58291 0.916397,0.65319 0.327974,0.15709 1.03215,0.24667 1.619194,0.20671 0.410654,-0.0289 0.514007,-0.008 1.273309,0.24529 0.602202,0.20119 1.103806,0.33073 1.471743,0.37896 0.216351,0.0276 0.253559,0.0427 0.239779,0.0937 -0.01242,0.0482 -0.0083,0.0482 0.06201,-0.01 0.04685,-0.0386 0.07993,-0.0482 0.165364,-0.0482 0.230131,0 0.490584,-0.0717 0.753788,-0.20533 0.129536,-0.0661 0.216351,-0.13229 0.380336,-0.28525 0.278367,-0.26183 0.456131,-0.39826 0.887459,-0.68489 0.413409,-0.27285 0.500228,-0.3197 0.775836,-0.41341 0.180523,-0.062 0.225996,-0.0703 0.396875,-0.0703 0.106108,0 0.242534,-0.01 0.303166,-0.0221 0.125402,-0.0248 0.192927,-0.011 0.389986,0.0827 0.06477,0.0303 0.126781,0.0551 0.137805,0.0551 0.0248,0 0.148826,-0.25218 0.179144,-0.36656 0.01242,-0.0469 0.06201,-0.16812 0.110243,-0.2701 0.106109,-0.22048 0.118512,-0.34726 0.04823,-0.46853 -0.02342,-0.04 -0.04272,-0.0923 -0.04272,-0.11576 -0.0014,-0.22875 -0.516763,-0.443724 -1.070734,-0.4451 -0.197062,0 -0.271473,0.0069 -0.347267,0.03443 -0.194303,0.07028 -0.395496,0.22738 -0.771702,0.59669 -0.334863,0.32798 -0.381716,0.36656 -0.540191,0.44649 -0.09508,0.0482 -0.230131,0.10197 -0.299032,0.11851 -0.126781,0.0317 -0.144695,0.0317 -0.607716,-0.004 -0.293522,-0.0234 -0.47129,0.051 -1.10932,0.4644 -0.04823,0.0317 -0.108864,0.0468 -0.212217,0.0551 -0.07993,0.007 -0.252183,0.0427 -0.385851,0.0799 -0.181903,0.0524 -0.278366,0.0689 -0.396875,0.0703 -0.172254,10e-4 -0.230134,-0.0193 -0.432707,-0.1571 -0.256314,-0.17363 -0.677993,-0.34038 -0.974269,-0.38585 -0.175014,-0.0262 -0.486449,-0.0124 -0.635279,0.0276 -0.05374,0.0138 -0.188789,0.0634 -0.299032,0.10887 -0.175013,0.0717 -0.227376,0.0841 -0.380341,0.0909 -0.235645,0.0124 -0.491959,-0.0317 -0.892968,-0.15296 -0.311436,-0.0937 -0.424434,-0.14056 -0.438214,-0.1819 -0.0096,-0.0317 0.114374,-0.0813 0.356909,-0.14332 0.312815,-0.0799 0.551215,-0.19844 0.672483,-0.33624 0.08957,-0.1006 0.136426,-0.12678 0.785484,-0.45337 0.378961,-0.190174 0.701421,-0.341759 0.71658,-0.334869 0.01379,0.0055 0.03168,0.02618 0.03858,0.04548 0.0014,0.0083 0.0069,0.01517 0.01101,0.02205 l 0.04134,-0.04134 c 0.439593,-0.47129 1.054199,-0.672483 1.604035,-0.975653 0.235645,-0.130912 0.421682,-0.312815 0.609095,-0.494714 0.0096,-0.01517 0.02067,-0.0303 0.02343,-0.03583 0.01242,-0.02205 0.02342,-0.0441 0.03447,-0.06753 0.02205,-0.04272 0.04134,-0.08682 0.06615,-0.128157 0.09508,-0.157095 0.237021,-0.261828 0.41341,-0.311435 0.06063,-0.01792 0.126781,-0.01792 0.188792,-0.0028 0.02067,-0.0096 0.03996,-0.01792 0.06064,-0.0248 0.275607,-0.104729 0.458886,0.111623 0.46991,0.343133 0.05788,-0.05926 0.118509,-0.119892 0.179144,-0.179144 0.297656,-0.292146 0.378961,-0.361047 0.421679,-0.361047 0.07442,0 0.06477,0.03996 -0.02755,0.110243 -0.103353,0.07993 -0.418924,0.412034 -0.617361,0.642165 -0.0248,0.05099 -0.06201,0.09784 -0.113002,0.136426 -0.01517,0.0193 -0.02893,0.03858 -0.03858,0.05237 -0.169499,0.257694 -0.314195,0.642165 -0.374827,0.996323 -0.01517,0.08543 -0.03721,0.292142 -0.04961,0.458889 -0.0248,0.32522 -0.0069,0.56224 0.05237,0.71382 0.05788,0.1447 0.209461,0.21636 0.340377,0.16123 0.118509,-0.0496 0.147447,-0.15296 0.184655,-0.68764 0.04823,-0.675241 0.352778,-1.395952 0.777215,-1.843818 0.157096,-0.163985 0.31557,-0.275607 0.573264,-0.401006 0.260449,-0.126781 0.310056,-0.117136 0.184658,0.03443 -0.03583,0.04548 -0.09509,0.14194 -0.129536,0.216352 -0.06339,0.132292 -0.06339,0.136426 -0.06339,0.413413 0.0014,0.479556 0.08544,0.713825 0.259073,0.713825 0.151581,0 0.212217,-0.103354 0.260449,-0.445107 0.02893,-0.206707 0.05099,-0.265963 0.227375,-0.633899 0.06063,-0.128157 0.114378,-0.199814 0.256315,-0.348644 0.188792,-0.197058 0.260448,-0.30868 0.260448,-0.405144 0,-0.04272 0.02205,-0.08406 0.08268,-0.150205 0.234265,-0.254935 0.465776,-0.581533 0.587043,-0.824068 0.191548,-0.383092 0.326595,-0.913638 0.361047,-1.427646 0.01792,-0.24529 -0.01792,-0.928797 -0.07441,-1.427649 -0.121267,-1.083137 -0.119888,-1.13688 0.06615,-1.890667 0.128157,-0.515387 0.350022,-0.994943 0.559484,-1.204404 0.157096,-0.158475 0.366557,-0.33073 0.439593,-0.361047 0.03447,-0.01517 0.108864,-0.03447 0.163985,-0.04548 0.05512,-0.0096 0.110243,-0.03306 0.124026,-0.05099 0.03583,-0.04823 0.02893,-0.115753 -0.01242,-0.146071 -0.02205,-0.01379 -0.03996,-0.05374 -0.0441,-0.09233 -0.0055,-0.06615 -0.0069,-0.06615 -0.111622,-0.07304 -0.163985,-0.0096 -0.297656,0.02755 -0.552591,0.152961 -0.340378,0.166744 -0.56224,0.367937 -0.803399,0.726229 -0.176389,0.264583 -0.260449,0.471286 -0.378957,0.945331 -0.07579,0.299036 -0.252183,1.168577 -0.340378,1.663295 -0.09784,0.562239 -0.16812,0.884699 -0.276983,1.292598 -0.125402,0.465776 -0.228755,0.762057 -0.377585,1.073493 -0.286632,0.600823 -0.494715,0.901238 -0.901235,1.303623 l -0.268718,0.265963 h -0.220486 c -0.121267,0 -0.220486,-0.0055 -0.220486,-0.01242 0,-0.0055 0.08268,-0.08957 0.183279,-0.184658 0.100594,-0.09508 0.225996,-0.230131 0.278363,-0.301787 0.184658,-0.243915 0.212217,-0.315574 0.465776,-1.160311 l 0.334863,-1.659156 c 0.275608,-1.723927 0.392741,-2.225534 0.642165,-2.728518 0.136427,-0.276983 0.420303,-0.764812 0.523657,-0.905369 0.271473,-0.359667 0.651813,-0.742763 0.928796,-0.931555 0.07855,-0.05374 0.140561,-0.110243 0.147451,-0.136427 0.01792,-0.07028 -0.06477,-0.24529 -0.158475,-0.330729 -0.0937,-0.08682 -0.423058,-0.252179 -0.500228,-0.252179 -0.07166,0 -0.119888,0.0303 -0.15434,0.09646 -0.02205,0.04134 -0.04823,0.05926 -0.101974,0.06752 -0.292143,0.04686 -0.628386,0.250804 -0.839227,0.508497 -0.143316,0.17501 -0.383092,0.529167 -0.454752,0.672483 -0.07717,0.155719 -0.447862,1.088651 -0.533301,1.346344 -0.101974,0.310057 -0.190168,0.629762 -0.279742,1.022502 -0.0441,0.190172 -0.122643,0.529167 -0.17363,0.751032 -0.144696,0.622872 -0.219111,0.960494 -0.327974,1.485526 -0.126782,0.613227 -0.259073,1.128614 -0.32246,1.252637 -0.0441,0.08682 -0.165365,0.288007 -0.493339,0.814419 -0.09233,0.14883 -0.431327,0.556729 -0.490583,0.592557 -0.08268,0.04823 -0.03996,-0.07442 0.09922,-0.283876 0.256317,-0.384472 0.44373,-0.908128 0.483693,-1.353235 0.0069,-0.07441 0.0248,-0.177765 0.03858,-0.23151 0.05512,-0.199814 0.08682,-0.425814 0.115757,-0.824065 0.06615,-0.919151 0.09922,-1.216808 0.184658,-1.655025 0.183279,-0.926041 0.451997,-1.616438 1.223698,-3.135037 0.432703,-0.848872 0.447862,-0.8847 0.541567,-1.203025 0.107488,-0.359671 0.09233,-0.423058 -0.126778,-0.530546 -0.06753,-0.03306 -0.118512,-0.06753 -0.114377,-0.07855 0.0041,-0.01101 0.07855,-0.0193 0.16674,-0.0193 0.115757,0 0.165365,-0.0083 0.186038,-0.02893 0.02618,-0.02755 0.09508,-0.338995 0.157095,-0.711066 0.03447,-0.203952 0.03583,-0.199817 -0.09646,-0.235645 -0.04272,-0.01101 -0.168119,-0.05237 -0.279742,-0.09095 -0.261824,-0.09095 -0.40514,-0.09646 -0.505738,-0.0193 -0.09233,0.07028 -0.129537,0.159854 -0.151586,0.358292 -0.0441,0.429948 -0.02067,0.549836 0.135051,0.65181 0.04272,0.02893 0.07855,0.0565 0.07855,0.06064 0,0.0055 -0.04685,0.06201 -0.103353,0.128157 -0.144692,0.166741 -0.496094,0.638031 -0.593934,0.796505 -0.0441,0.07304 -0.130912,0.235645 -0.191547,0.363802 -0.143316,0.301791 -0.631141,1.605414 -0.728984,1.949923 -0.325215,1.143773 -0.421679,1.531003 -0.502983,2.027097 -0.07717,0.475421 -0.100595,0.853006 -0.107485,1.809362 -0.0055,0.713824 -0.02342,1.103809 -0.08544,1.48277 0.03858,0.05788 0.05926,0.132292 0.05237,0.224621 -0.01792,0.23978 -0.03721,0.486445 -0.09371,0.71658 0.01517,0.0055 0.02755,0.01238 0.03168,0.02205 0.01242,0.03168 -0.0441,0.168119 -0.0689,0.168119 -0.0028,0 -0.01101,-0.0028 -0.0193,-0.0069 -0.0055,0.01654 -0.01242,0.03168 -0.0193,0.04685 -0.01242,0.06339 -0.04134,0.124022 -0.08682,0.175013 -0.05788,0.09646 -0.129533,0.184654 -0.220486,0.263204 -0.03858,0.03858 -0.101974,0.09646 -0.172255,0.157095 -0.115753,0.09784 -0.220486,0.198438 -0.234265,0.223241 -0.01379,0.0248 -0.05926,0.07442 -0.101974,0.108868 -0.122647,0.100594 -0.483694,0.362422 -0.501608,0.363802 -0.0069,0 -0.03168,-0.01101 -0.06201,-0.0248 -0.374826,0.283874 -0.713825,0.582909 -1.154797,0.767567 -0.09784,0.04134 -0.198437,0.07717 -0.299032,0.110243 -0.129536,0.0689 -0.391365,0.17501 -0.483694,0.188789 -0.119888,0.01655 -0.514007,0.183274 -0.916393,0.385854 -0.286632,0.14469 -0.385851,0.17225 -0.588423,0.16674 -0.106108,-0.004 -0.15434,-0.0179 -0.30868,-0.0937 -0.210841,-0.10197 -0.351402,-0.14056 -0.636655,-0.17087 -0.111622,-0.011 -0.209461,-0.0289 -0.219106,-0.0372 -0.02342,-0.0234 0.107484,-0.10198 0.39274,-0.237021 0.230131,-0.108867 0.87781,-0.376205 1.169952,-0.482314 l 0.04961,-0.0193 c 0.03721,-0.03583 0.08406,-0.06615 0.140561,-0.08819 0.06201,-0.0248 0.124023,-0.04685 0.186034,-0.06753 0.363802,-0.139182 0.71658,-0.326595 1.029395,-0.558106 0.01655,-0.02618 0.0689,-0.08406 0.135047,-0.146071 0.06615,-0.06201 0.157095,-0.155719 0.23289,-0.235645 -0.02067,-0.0248 -0.03996,-0.05099 -0.05512,-0.08268 -0.07579,-0.0014 -0.151585,0.0028 -0.224621,0.01517 -0.107487,0.104729 -0.136426,0.125399 -0.177768,0.124023 -0.02205,0.0193 -0.04685,0.03721 -0.07717,0.05237 -0.157095,0.08544 -0.282497,0.181899 -0.410654,0.267339 0.01655,0.02893 -0.106109,0.08957 -0.372072,0.194303 -0.157095,0.06201 -0.343129,0.139181 -0.413409,0.175009 -0.07442,0.03583 -0.212217,0.07993 -0.327974,0.103353 -0.106109,0.02205 -0.25218,0.05375 -0.333485,0.07579 -0.02067,0.0096 -0.04272,0.02067 -0.06615,0.02893 -0.316949,0.107484 -0.599447,0.256314 -0.924665,0.299032 -0.01101,0.01101 -0.02618,0.02205 -0.04272,0.03171 -0.06477,0.03306 -0.512629,0.143316 -0.781347,0.191548 -0.09508,0.01792 -0.265962,0.05374 -0.378961,0.07993 -0.194302,0.0441 -0.68902,0.12402 -0.770322,0.12402 -0.01792,0 -0.03447,-0.0138 -0.04961,-0.0386 -0.249424,0.0496 -0.502983,0.0827 -0.755163,0.0909 -0.05512,0.0152 -0.288011,0.0221 -1.001836,0.0303 -0.913638,0.0124 -1.204404,0.0234 -1.395952,0.0717 -0.03168,0.0152 -0.0689,0.0275 -0.111623,0.0345 -0.0014,0 -0.0014,0 -0.0028,0 -0.135047,0.0469 -0.126777,0.0455 -0.148826,0.0179 -0.0028,-0.003 -0.0055,-0.008 -0.0083,-0.0152 -0.133671,-0.0165 -0.2384,-0.0841 -0.356912,-0.18604 -0.0193,-0.0165 -0.03447,-0.0345 -0.04823,-0.0537 0.0193,0.15985 0.05512,0.29214 0.103353,0.37896 l 0.04134,0.0717 -0.0689,0.0772 c -0.09784,0.10748 -0.125402,0.16949 -0.150209,0.33073 -0.04823,0.30454 0.03859,0.4768 0.329353,0.66008"
         id="path2368"
         style="stroke-width:0.352778" />
      <path
         fill-rule="nonzero"
         fill="#ffffff"
         fill-opacity="1"
         d="m 61.541853,95.968691 c 0.136426,-0.325216 0.16123,-0.438214 0.176389,-0.80064 0.01242,-0.32935 -0.01101,-0.603582 -0.0813,-0.930176 -0.02618,-0.118509 -0.04823,-0.243911 -0.04823,-0.275608 0,-0.118509 0.143316,-0.192924 0.254935,-0.132292 0.07442,0.03996 0.250804,0.516767 0.31557,0.853006 0.07304,0.388606 0.07304,1.058334 -0.0028,1.324296 -0.01654,0.05788 -0.08957,0.214973 -0.162609,0.347264 -0.169499,0.307305 -0.25907,0.501608 -0.294898,0.642169 -0.01654,0.06201 -0.0441,0.133667 -0.06201,0.16123 -0.03583,0.05374 -0.190168,0.130912 -0.23151,0.114377 -0.01517,-0.0055 -0.06063,0.0028 -0.100595,0.01792 -0.107488,0.03858 -0.203951,0.03583 -0.263207,-0.01101 -0.06615,-0.05237 -0.06477,-0.110243 0.0069,-0.246669 0.09646,-0.183279 0.376202,-0.78824 0.493335,-1.063848"
         id="path2370"
         style="stroke-width:0.352778" />
      <path
         fill-rule="nonzero"
         fill="#ffffff"
         fill-opacity="1"
         d="m 50.006295,102.7638 c 0.07993,-0.0427 0.121267,-0.051 0.250804,-0.0496 0.31006,0 0.70969,0.04 0.848871,0.0841 0.173634,0.0537 0.413414,0.17501 0.501608,0.25218 0.07441,0.0661 0.151582,0.18879 0.170875,0.27147 0.03859,0.16675 -0.201193,0.39412 -0.464397,0.4396 -0.151585,0.0262 -0.604961,-0.0165 -0.835092,-0.0785 -0.16123,-0.0441 -0.512632,-0.20533 -0.61185,-0.27974 -0.119888,-0.0923 -0.151582,-0.226 -0.09233,-0.3955 0.03859,-0.10611 0.108867,-0.1819 0.23151,-0.24391"
         id="path2372"
         style="stroke-width:0.352778" />
      <path
         fill-rule="nonzero"
         fill="#ffffff"
         fill-opacity="1"
         d="m 52.346206,103.36187 c 0.126778,-0.0138 0.238401,0.022 0.552592,0.17914 0.30868,0.15296 0.505742,0.22049 0.646299,0.22049 0.04961,0 0.243914,-0.0262 0.435462,-0.0593 0.564995,-0.0951 0.850251,-0.0786 1.252636,0.0772 0.403765,0.15572 0.862651,0.17226 1.154797,0.0427 0.04685,-0.0193 0.186034,-0.10335 0.310056,-0.18466 0.268718,-0.17363 0.541571,-0.42995 0.782726,-0.73449 0.344512,-0.4327 0.48507,-0.51125 0.921911,-0.50987 0.340374,0 0.582909,0.0799 0.759298,0.24942 0.08544,0.0827 0.0937,0.0965 0.0937,0.18052 0,0.15572 -0.08544,0.29353 -0.212217,0.34451 -0.191547,0.0786 -0.458886,0.0923 -0.599447,0.0331 -0.05236,-0.0234 -0.107484,-0.0372 -0.122643,-0.0303 -0.01379,0.006 -0.05099,0.0813 -0.07993,0.17088 -0.05374,0.16674 -0.124022,0.31695 -0.183278,0.40239 -0.0193,0.0262 -0.06615,0.12815 -0.10473,0.22599 -0.03859,0.0965 -0.09646,0.21636 -0.128157,0.26321 -0.07717,0.11576 -0.263207,0.28525 -0.369316,0.33624 -0.107488,0.0524 -0.401009,0.0758 -0.549836,0.0441 -0.122646,-0.0262 -0.133671,-0.022 -0.297656,0.1254 -0.186037,0.16536 -0.243914,0.19017 -0.450621,0.19017 -0.17363,0 -0.175009,-10e-4 -0.401006,-0.11024 -0.124026,-0.0606 -0.265962,-0.13781 -0.314194,-0.17088 -0.104729,-0.073 -0.126778,-0.0662 -0.268718,0.0827 -0.110243,0.11438 -0.202572,0.16399 -0.372071,0.19982 -0.199813,0.0413 -0.751029,0.0262 -0.891589,-0.0248 -0.158475,-0.0579 -0.212217,-0.0896 -0.337619,-0.19844 -0.06339,-0.0524 -0.144696,-0.10473 -0.181903,-0.11575 -0.0372,-0.01 -0.231511,-0.0358 -0.434079,-0.0579 -0.581533,-0.0634 -0.712449,-0.10749 -0.908128,-0.30179 -0.124026,-0.1254 -0.183278,-0.26734 -0.184658,-0.452 -0.0028,-0.26183 0.130913,-0.3762 0.482314,-0.41754"
         id="path2374"
         style="stroke-width:0.352778" />
      <path
         fill-rule="nonzero"
         fill="#ffffff"
         fill-opacity="1"
         d="m 59.721467,97.049073 c 0.209462,-0.203948 0.427189,-0.56775 0.603578,-1.007347 0.210841,-0.529167 0.250804,-0.757918 0.250804,-1.423511 -0.0014,-0.569129 -0.03305,-0.886079 -0.114378,-1.138259 -0.07441,-0.22462 -0.133667,-0.700045 -0.117133,-0.9412 0.03859,-0.610472 0.226,-1.04042 0.610472,-1.395953 0.191548,-0.176388 0.344508,-0.363802 0.384471,-0.472669 0.01242,-0.0303 0.02755,-0.136426 0.03447,-0.237021 0.01242,-0.179147 0.01379,-0.183278 0.06063,-0.183278 0.06615,0 0.101974,0.106108 0.10335,0.30868 0.0014,0.132292 -0.0055,0.169496 -0.05099,0.260449 -0.0813,0.158475 -0.234266,0.340374 -0.351399,0.414789 -0.0565,0.03721 -0.108863,0.07579 -0.115757,0.0882 -0.0055,0.0083 -0.0041,0.01654 0.0014,0.0248 -0.04272,0.03168 -0.07579,0.07166 -0.101973,0.115757 -0.03447,0.03168 -0.07304,0.05788 -0.104733,0.09233 -0.04685,0.04823 -0.09095,0.113002 -0.115754,0.179148 -0.05374,0.0689 -0.139181,0.330729 -0.152964,0.458886 -0.02342,0.03443 -0.03996,0.07166 -0.04685,0.114378 -0.03858,0.217727 -0.03583,0.418923 -0.0028,0.636651 0.01517,0.09371 0.03168,0.199817 0.07993,0.282501 0.0083,0.01379 0.01792,0.02618 0.02755,0.03858 -0.0028,0.02755 0.0248,0.08406 0.0689,0.128157 0.05237,0.05375 0.0813,0.115757 0.141936,0.30317 0.09233,0.283873 0.113002,0.383092 0.137806,0.661459 0.03858,0.418923 0.01655,0.775836 -0.08682,1.350475 -0.133667,0.751032 -0.387226,1.471747 -0.600823,1.708768 -0.07855,0.08682 -0.198437,0.163988 -0.319705,0.202572 -0.121267,0.03996 -0.356912,0.02618 -0.442351,-0.02618 -0.04961,-0.03168 -0.08406,-0.03858 -0.137802,-0.0303 -0.05512,0.0097 -0.07028,0.0055 -0.07028,-0.01654 0,-0.03306 0.25907,-0.336243 0.427193,-0.497473"
         id="path2376"
         style="stroke-width:0.352778" />
      <path
         fill-rule="nonzero"
         fill="#ffffff"
         fill-opacity="1"
         d="m 58.909803,87.056917 0.187413,0.09922 c 0.410655,0.220486 0.698662,0.447865 0.698662,0.55535 0,0.03447 -0.06063,0.130916 -0.186033,0.299035 l -0.186034,0.24667 -0.06753,-0.01101 c -0.111622,-0.01792 -0.724848,-0.501608 -0.746897,-0.587043 -0.0083,-0.03172 0.0041,-0.07855 0.03305,-0.137806 0.04823,-0.09233 0.191548,-0.345888 0.23978,-0.421679 z m 0,0"
         id="path2378"
         style="stroke-width:0.352778" />
      <path
         fill-rule="nonzero"
         fill="#ffffff"
         fill-opacity="1"
         d="m 59.189542,78.551667 c -0.0882,0.03858 -0.396875,0.0055 -0.647676,-0.0689 -0.420303,-0.125402 -0.719338,-0.202572 -0.868165,-0.223245 -0.374826,-0.05099 -0.424437,-0.169495 -0.388606,-0.912258 0.01101,-0.245294 0.02067,-0.602203 0.01792,-0.79375 -0.0041,-0.49196 0.05099,-0.702801 0.237021,-0.905373 0.110243,-0.119888 0.228756,-0.163985 0.457511,-0.173634 0.103353,-0.0028 0.209462,-0.01242 0.237021,-0.0193 0.08819,-0.02342 0.365181,0.136423 0.553974,0.319705 0.188789,0.18052 0.230131,0.25907 0.314191,0.591178 0.08957,0.352778 0.129536,0.771702 0.14056,1.484147 0.0069,0.341753 0.0055,0.635275 -0.0014,0.653189 -0.0055,0.01654 -0.0303,0.03859 -0.05237,0.04823"
         id="path2380"
         style="stroke-width:0.352778" />
      <path
         fill-rule="nonzero"
         fill="#ffffff"
         fill-opacity="1"
         d="m 58.358588,80.42442 c 0.198437,0.02342 0.687638,0.130915 0.716579,0.15434 0.01517,0.01242 0.02067,0.05375 0.01517,0.110243 -0.0041,0.04823 -0.01792,0.237024 -0.02893,0.417548 -0.02067,0.32108 -0.0565,0.653189 -0.09784,0.891589 -0.02067,0.115757 -0.02205,0.119888 -0.100598,0.147451 -0.0441,0.01655 -0.09784,0.03306 -0.118509,0.03721 -0.08131,0.01792 -0.278366,0.01238 -0.558109,-0.01655 -0.802015,-0.07993 -0.832333,-0.08682 -0.917772,-0.205327 l -0.0565,-0.07855 0.0069,-0.70418 c 0.0069,-0.56775 0.01242,-0.70969 0.03447,-0.730359 0.06477,-0.06477 0.673862,-0.07855 1.105189,-0.02343"
         id="path2382"
         style="stroke-width:0.352778" />
      <path
         fill-rule="nonzero"
         fill="#ffffff"
         fill-opacity="1"
         d="m 61.165651,85.705062 c 0,0.02067 -0.06477,0.136426 -0.14194,0.256318 -0.07717,0.119888 -0.187413,0.292142 -0.24529,0.381716 -0.133671,0.212217 -0.162609,0.24391 -0.246669,0.267338 -0.09646,0.02755 -0.315571,0.01242 -0.392741,-0.02755 -0.03447,-0.01792 -0.115753,-0.06752 -0.177768,-0.110244 -0.32246,-0.217727 -0.409275,-0.395495 -0.327971,-0.668348 0.02893,-0.09784 0.399631,-0.767566 0.440973,-0.796505 0.03858,-0.02755 0.155716,-0.01379 0.265959,0.03168 0.267342,0.110243 0.825447,0.559484 0.825447,0.665593"
         id="path2384"
         style="stroke-width:0.352778" />
      <path
         fill-rule="nonzero"
         fill="#ffffff"
         fill-opacity="1"
         d="m 57.261667,83.938418 c 0.08131,-0.06063 0.548461,-0.0096 1.018371,0.107488 0.378961,0.09646 0.442352,0.122643 0.428569,0.180523 -0.0055,0.02343 -0.03306,0.260449 -0.06063,0.525032 -0.02755,0.26596 -0.06201,0.576019 -0.07717,0.690397 -0.01655,0.114378 -0.02893,0.216352 -0.02893,0.225997 0,0.0303 -0.08682,0.07717 -0.176389,0.09646 -0.04548,0.0097 -0.14883,0.01379 -0.228755,0.0083 -0.198438,-0.01379 -0.573264,-0.08131 -0.636655,-0.114377 -0.186034,-0.09646 -0.264583,-0.378961 -0.24529,-0.880566 0.0069,-0.170878 0.0041,-0.423058 -0.0069,-0.562239 -0.0193,-0.23289 -0.01792,-0.254939 0.01379,-0.276987"
         id="path2386"
         style="stroke-width:0.352778" />
      <path
         fill-rule="nonzero"
         fill="#ffffff"
         fill-opacity="1"
         d="m 55.773386,87.318745 c -0.158475,0.01654 -0.319705,0.03721 -0.356912,0.04548 -0.03721,0.0096 -0.09233,0.01655 -0.124023,0.01379 -0.05374,-0.0028 -0.06477,-0.01792 -0.195682,-0.305925 -0.07717,-0.16812 -0.133668,-0.307301 -0.126778,-0.311436 0.05236,-0.03306 0.781347,-0.14745 0.927418,-0.14745 0.124026,0.0014 0.151585,0.0303 0.275607,0.307304 l 0.117133,0.25907 -0.04272,0.03447 c -0.06477,0.05236 -0.155719,0.07304 -0.474045,0.104729"
         id="path2388"
         style="stroke-width:0.352778" />
      <path
         fill-rule="nonzero"
         fill="#ffffff"
         fill-opacity="1"
         d="m 60.56069,87.508914 c 0.104733,0.03305 0.564998,0.669727 0.564998,0.781349 0,0.0096 -0.118512,0.119888 -0.264583,0.242535 -0.250804,0.212217 -0.268718,0.224621 -0.336243,0.214972 -0.128157,-0.01655 -0.176389,-0.07028 -0.314191,-0.355533 -0.101978,-0.208082 -0.126781,-0.276987 -0.117136,-0.321084 0.01517,-0.0813 0.143316,-0.265959 0.29628,-0.432703 0.106109,-0.117133 0.137802,-0.140561 0.170875,-0.129536"
         id="path2390"
         style="stroke-width:0.352778" />
      <path
         fill-rule="nonzero"
         fill="#ffffff"
         fill-opacity="1"
         d="m 63.774277,81.554413 c -0.03996,0.04823 -0.08406,0.08268 -0.107488,0.08268 -0.09508,0 -0.538812,-0.330729 -1.117589,-0.832333 l -0.110243,-0.09646 0.04823,-0.09646 c 0.02755,-0.05374 0.150206,-0.2508 0.274229,-0.438214 0.183282,-0.278366 0.263207,-0.378961 0.438217,-0.553974 0.237024,-0.23702 0.312815,-0.283873 0.538815,-0.326594 0.354153,-0.06752 0.432703,-0.03583 0.687638,0.279742 0.253559,0.31557 0.248048,0.518142 -0.02342,1.012857 -0.126781,0.230134 -0.519521,0.835092 -0.628385,0.968763"
         id="path2392"
         style="stroke-width:0.352778" />
      <path
         fill-rule="nonzero"
         fill="#ffffff"
         fill-opacity="1"
         d="m 62.246033,85.233776 c 0.132292,-0.04272 0.540191,0.30868 0.818554,0.704176 0.158475,0.225996 0.173633,0.264583 0.139181,0.336239 -0.0303,0.06615 -0.49058,0.589802 -0.558105,0.638034 -0.02342,0.01517 -0.04823,0.02893 -0.0565,0.02893 -0.0083,0 -0.199813,-0.187413 -0.425813,-0.414789 -0.377582,-0.384475 -0.475421,-0.504363 -0.4768,-0.589802 -0.0014,-0.100595 0.449241,-0.668348 0.559484,-0.702797"
         id="path2394"
         style="stroke-width:0.352778" />
      <path
         fill-rule="nonzero"
         fill="#ffffff"
         fill-opacity="1"
         d="m 62.94883,82.812559 c 0.02618,0.05099 0.0248,0.06202 -0.04134,0.187414 -0.121267,0.228755 -0.508497,0.847495 -0.711069,1.135503 -0.05926,0.08406 -0.133668,0.190172 -0.165365,0.235645 -0.0303,0.04548 -0.06752,0.08131 -0.07992,0.08131 -0.03721,0 -0.132292,-0.06201 -0.389985,-0.256314 -0.129537,-0.09784 -0.314191,-0.231511 -0.409279,-0.299036 -0.09646,-0.06615 -0.225997,-0.16674 -0.288008,-0.223241 l -0.112998,-0.103354 0.04547,-0.08406 c 0.02618,-0.04685 0.104733,-0.175009 0.176389,-0.286632 0.07166,-0.111622 0.220486,-0.391361 0.332108,-0.621495 0.202572,-0.417544 0.344509,-0.661459 0.396875,-0.680752 0.05099,-0.0193 0.221862,0.07855 0.591178,0.338998 0.355533,0.250804 0.596692,0.463021 0.655945,0.576019"
         id="path2396"
         style="stroke-width:0.352778" />
      <path
         fill-rule="nonzero"
         fill="#ffffff"
         fill-opacity="1"
         d="m 62.469274,92.449182 c 0,-0.344509 -0.278363,-0.622872 -0.622875,-0.622872 -0.343129,0 -0.622871,0.278363 -0.622871,0.622872 0,0.344509 0.279742,0.622875 0.622871,0.622875 0.344512,0 0.622875,-0.278366 0.622875,-0.622875"
         id="path2398"
         style="stroke-width:0.352778" />
    </g>
  </g>
</svg>
